<svg fill="none" height="497" id="no-data" viewBox="0 0 667 497" width="667" xmlns="http://www.w3.org/2000/svg">
  <g clip-path="url(#clip0_1_2)">
    <path d="M0 436.929H666.667V436.596H0V436.929Z" fill="#E7E8E5"/>
    <path d="M555.705 458.057H599.868V458.39H555.705V458.057Z" fill="#E7E8E5"/>
    <path d="M430.036 461.675H441.627V462.008H430.036V461.675Z" fill="#E7E8E5"/>
    <path d="M528.781 445.676H554.371V446.009H528.781V445.676Z" fill="#E7E8E5"/>
    <path d="M69.9453 447.916H127.536V448.249H69.9453V447.916Z" fill="#E7E8E5"/>
    <path d="M139.408 447.916H147.852V448.249H139.408V447.916Z" fill="#E7E8E5"/>
    <path d="M175.295 453.545H300.196V453.878H175.295V453.545Z" fill="#E7E8E5"/>
    <path
      d="M58.5536 0.334648C54.5401 0.334648 51.276 3.59869 51.276 7.61069V369.52C51.276 373.533 54.5401 376.797 58.5536 376.797H316.019C320.031 376.797 323.295 373.533 323.295 369.52V7.61069C323.295 3.59869 320.031 0.334648 316.019 0.334648H58.5536ZM316.019 377.131H58.5536C54.3568 377.131 50.9427 373.717 50.9427 369.52V7.61069C50.9427 3.41602 54.3568 0.00131439 58.5536 0.00131439H316.019C320.213 0.00131439 323.628 3.41602 323.628 7.61069V369.52C323.628 373.717 320.213 377.131 316.019 377.131Z"
      fill="#E7E8E5"/>
    <path
      d="M346.949 0.334648C342.937 0.334648 339.673 3.59869 339.673 7.61069V369.52C339.673 373.533 342.937 376.797 346.949 376.797H604.413C608.427 376.797 611.692 373.533 611.692 369.52V7.61069C611.692 3.59869 608.427 0.334648 604.413 0.334648H346.949ZM604.413 377.131H346.949C342.753 377.131 339.34 373.717 339.34 369.52V7.61069C339.34 3.41602 342.753 0.00131439 346.949 0.00131439H604.413C608.611 0.00131439 612.025 3.41602 612.025 7.61069V369.52C612.025 373.717 608.611 377.131 604.413 377.131Z"
      fill="#E7E8E5"/>
    <path d="M386.255 158.809H569.963V38.5072H386.255V158.809Z" fill="#E2E2E0"/>
    <path d="M380.649 158.809H567.343V38.5072H380.649V158.809Z" fill="#EDEDEB"/>
    <path d="M386.255 182.42H569.963V158.809H386.255V182.42Z" fill="#E2E2E0"/>
    <path d="M371.311 182.42H558.004V158.809H371.311V182.42Z" fill="#EDEDEB"/>
    <path d="M388.496 150.961H559.496V46.354H388.496V150.961Z" fill="#FAFAF9"/>
    <path d="M520.936 150.963L499.096 46.3547H465.015L486.855 150.963H520.936Z" fill="white"/>
    <path
      d="M555.863 143.152C556.172 143.152 556.423 142.9 556.423 142.591V51.46C556.423 51.1507 556.172 50.8987 555.863 50.8987C555.553 50.8987 555.301 51.1507 555.301 51.46V142.591C555.301 142.9 555.553 143.152 555.863 143.152Z"
      fill="#EDEDEB"/>
    <path d="M479.533 150.963L457.693 46.3547H444.405L466.247 150.963H479.533Z" fill="white"/>
    <path d="M388.496 150.961H389.493V46.354H388.496V150.961Z" fill="#E2E2E0"/>
    <path d="M562.501 58.1867H559.496V49.404H563.223L562.501 58.1867Z" fill="#EAEAE7"/>
    <path
      d="M559.496 58.1867H556.423V51.46C556.423 51.1507 556.172 50.8987 555.863 50.8987C555.553 50.8987 555.301 51.1507 555.301 51.46V58.1867H501.565L499.732 49.404H559.496V58.1867ZM467.484 58.1867H460.163L458.329 49.404H465.651L467.484 58.1867Z"
      fill="#EEEEEC"/>
    <path d="M501.565 58.1867H467.484L465.651 49.404H499.732L501.565 58.1867Z" fill="#F0F0EE"/>
    <path d="M446.876 58.1867H389.493V49.404H445.043L446.876 58.1867Z" fill="#EEEEEC"/>
    <path d="M380.649 58.1867H378.793L379.515 49.404H380.649V58.1867Z" fill="#F0F0EE"/>
    <path d="M380.649 58.1867H388.496V49.4049H380.649V58.1867Z" fill="#EAEAE7"/>
    <path
      d="M556.423 58.1867H555.301V51.46C555.301 51.1507 555.553 50.8987 555.863 50.8987C556.172 50.8987 556.423 51.1507 556.423 51.46V58.1867Z"
      fill="#EAEAE7"/>
    <path d="M460.163 58.1867H446.876L445.043 49.404H458.329L460.163 58.1867Z" fill="#F0F0EE"/>
    <path d="M388.496 58.1867H389.493V49.4049H388.496V58.1867Z" fill="#E5E5E3"/>
    <path d="M562.501 72.5894H559.496V63.8067H563.223L562.501 72.5894Z" fill="#EAEAE7"/>
    <path
      d="M559.496 72.5894H556.423V63.8067H559.496V72.5894ZM555.301 72.5894H504.573L502.739 63.8067H555.301V72.5894ZM470.492 72.5894H463.171L461.336 63.8067H468.657L470.492 72.5894Z"
      fill="#EEEEEC"/>
    <path d="M504.573 72.5894H470.492L468.657 63.8067H502.739L504.573 72.5894Z" fill="#F0F0EE"/>
    <path d="M449.883 72.5894H389.493V63.8067H448.049L449.883 72.5894Z" fill="#EEEEEC"/>
    <path d="M380.649 72.5894H378.793L379.515 63.8067H380.649V72.5894Z" fill="#F0F0EE"/>
    <path d="M380.649 72.5894H388.496V63.8076H380.649V72.5894Z" fill="#EAEAE7"/>
    <path d="M555.301 72.5894H556.423V63.8076H555.301V72.5894Z" fill="#EAEAE7"/>
    <path d="M463.171 72.5894H449.883L448.049 63.8067H461.336L463.171 72.5894Z" fill="#F0F0EE"/>
    <path d="M388.496 72.5894H389.493V63.8076H388.496V72.5894Z" fill="#E5E5E3"/>
    <path d="M562.501 86.992H559.496V78.2107H563.223L562.501 86.992Z" fill="#EAEAE7"/>
    <path
      d="M559.496 86.992H556.423V78.2107H559.496V86.992ZM555.301 86.992H507.58L505.747 78.2107H555.301V86.992ZM473.499 86.992H466.177L464.344 78.2107H471.665L473.499 86.992Z"
      fill="#EEEEEC"/>
    <path d="M507.58 86.992H473.499L471.665 78.2107H505.747L507.58 86.992Z" fill="#F0F0EE"/>
    <path d="M452.891 86.992H389.493V78.2107H451.057L452.891 86.992Z" fill="#EEEEEC"/>
    <path d="M380.649 86.992H378.793L379.515 78.2107H380.649V86.992Z" fill="#F0F0EE"/>
    <path d="M380.649 86.992H388.496V78.2108H380.649V86.992Z" fill="#EAEAE7"/>
    <path d="M555.301 86.992H556.423V78.2108H555.301V86.992Z" fill="#EAEAE7"/>
    <path d="M466.177 86.992H452.891L451.057 78.2107H464.344L466.177 86.992Z" fill="#F0F0EE"/>
    <path d="M388.496 86.992H389.493V78.2108H388.496V86.992Z" fill="#E5E5E3"/>
    <path d="M562.501 101.395H559.496V92.6133H563.223L562.501 101.395Z" fill="#EAEAE7"/>
    <path
      d="M559.496 101.395H556.423V92.6133H559.496V101.395ZM555.301 101.395H510.587L508.753 92.6133H555.301V101.395ZM476.505 101.395H469.184L467.351 92.6133H474.672L476.505 101.395Z"
      fill="#EEEEEC"/>
    <path d="M510.587 101.395H476.505L474.672 92.6133H508.753L510.587 101.395Z" fill="#F0F0EE"/>
    <path d="M455.897 101.395H389.493V92.6133H454.064L455.897 101.395Z" fill="#EEEEEC"/>
    <path d="M380.649 101.395H378.793L379.515 92.6133H380.649V101.395Z" fill="#F0F0EE"/>
    <path d="M380.649 101.395H388.496V92.6129H380.649V101.395Z" fill="#EAEAE7"/>
    <path d="M555.301 101.395H556.423V92.6129H555.301V101.395Z" fill="#EAEAE7"/>
    <path d="M469.184 101.395H455.897L454.064 92.6133H467.351L469.184 101.395Z" fill="#F0F0EE"/>
    <path d="M388.496 101.395H389.493V92.6129H388.496V101.395Z" fill="#E5E5E3"/>
    <path d="M380.649 115.796H378.793L379.515 107.016H380.649V115.796Z" fill="#F0F0EE"/>
    <path d="M562.501 115.796H559.496V107.016H563.223L562.501 115.796ZM388.496 115.796H380.649V107.016H388.496V115.796Z"
          fill="#EAEAE7"/>
    <path
      d="M559.496 115.796H556.423V107.016H559.496V115.796ZM555.301 115.796H513.595L511.76 107.016H555.301V115.796ZM479.513 115.796H472.191L470.357 107.016H477.679L479.513 115.796ZM458.904 115.796H408.703C410.023 114.927 411.353 114.076 412.672 113.244L410.305 108.107C408.485 108.733 406.812 109.42 405.097 110.161C403.391 110.889 401.705 111.68 400.052 112.557C398.161 113.561 396.273 114.604 394.419 115.796H389.493V107.016H457.071L458.904 115.796Z"
      fill="#EEEEEC"/>
    <path
      d="M513.595 115.796H509.845C508.625 112.792 507.281 109.879 505.811 107.016H511.76L513.595 115.796ZM501.517 115.796H479.513L477.679 107.016H499.043C499.899 109.931 500.747 112.868 501.517 115.796Z"
      fill="#F0F0EE"/>
    <path d="M555.301 115.796H556.423V107.015H555.301V115.796Z" fill="#EAEAE7"/>
    <path d="M472.191 115.796H458.904L457.071 107.016H470.357L472.191 115.796Z" fill="#F0F0EE"/>
    <path d="M388.496 115.796H389.493V107.015H388.496V115.796Z" fill="#E5E5E3"/>
    <path d="M380.649 128.621H378.923L379.515 121.419H380.649V128.621Z" fill="#F0F0EE"/>
    <path
      d="M562.501 130.2H559.496V121.419H563.223L562.501 130.2ZM383.437 128.621H380.649V121.419H387.479C386.9 122.041 386.337 122.719 385.796 123.473C385.097 124.448 384.429 125.572 383.92 126.949C383.725 127.463 383.56 128.024 383.437 128.621Z"
      fill="#EAEAE7"/>
    <path
      d="M559.496 130.2H556.423V121.419H559.496V130.2ZM555.301 130.2H516.601L514.768 121.419H555.301V130.2ZM482.52 130.2H475.199L473.365 121.419H480.687L482.52 130.2ZM461.912 130.2H460.517C460.723 128.925 460.945 127.707 461.157 126.588L461.912 130.2ZM454.579 130.2H441.631C439.831 129.196 437.785 128.621 435.655 128.621H434.56H393.885C394.481 127.629 395.381 126.519 396.404 125.456C397.767 124.065 399.283 122.72 400.896 121.419H460.079L460.799 124.868L454.579 130.2Z"
      fill="#EEEEEC"/>
    <path
      d="M516.601 130.2H514.056C513.661 126.959 512.836 124.181 511.947 121.419H514.768L516.601 130.2ZM504.296 130.2H482.52L480.687 121.419H502.887C503.051 122.165 503.208 122.911 503.356 123.653C503.793 125.883 504.173 128.171 504.296 130.2Z"
      fill="#F0F0EE"/>
    <path d="M555.301 130.2H556.423V121.418H555.301V130.2Z" fill="#EAEAE7"/>
    <path
      d="M475.199 130.2H461.912L461.157 126.588C461.325 125.707 461.487 124.889 461.631 124.153L460.799 124.868L460.079 121.419H473.365L475.199 130.2Z"
      fill="#F0F0EE"/>
    <path d="M543.584 356.7H505.065V349.107H543.584V356.7Z" fill="#E2E2E0"/>
    <path d="M432.411 436.596H439.521V261.843H432.411V436.596Z" fill="#E2E2E0"/>
    <path d="M407.781 356.7H505.066V349.107H407.781V356.7Z" fill="#F3F2F1"/>
    <path d="M543.584 398.256H505.065V390.661H543.584V398.256Z" fill="#E2E2E0"/>
    <path d="M407.781 398.256H505.066V390.661H407.781V398.256Z" fill="#F3F2F1"/>
    <path d="M543.584 273.589H505.065V265.995H543.584V273.589Z" fill="#E2E2E0"/>
    <path d="M407.781 273.589H505.066V265.995H407.781V273.589Z" fill="#F3F2F1"/>
    <path d="M543.584 315.145H505.065V307.551H543.584V315.145Z" fill="#E2E2E0"/>
    <path d="M407.781 315.145H505.066V307.551H407.781V315.145Z" fill="#F3F2F1"/>
    <path d="M529.695 436.596H536.805V261.843H529.695V436.596Z" fill="#E2E2E0"/>
    <path d="M497.955 436.596H505.065V261.843H497.955V436.596Z" fill="#F3F2F1"/>
    <path d="M407.781 436.596H414.892V261.843H407.781V436.596Z" fill="#F3F2F1"/>
    <path d="M87.1651 436.597H159.936V295.407H87.1651V436.597Z" fill="#E2E2E0"/>
    <path d="M106.597 436.597H87.1651V417.107H126.971L106.597 436.597Z" fill="#FAFAF9"/>
    <path d="M285.577 436.597H358.348V295.407H285.577V436.597Z" fill="#E2E2E0"/>
    <path d="M87.1651 429.888H302.537V295.407H87.1651V429.888Z" fill="#FAFAF9"/>
    <path d="M283.105 436.597H302.537V417.107H262.731L283.105 436.597Z" fill="#FAFAF9"/>
    <path d="M102.24 379.173H287.462V345.519H102.24V379.173Z" fill="#EDEDEB"/>
    <path d="M102.24 420.021H287.463V386.366H102.24V420.021Z" fill="#EDEDEB"/>
    <path
      d="M137.445 349.117H252.256C255.627 349.117 258.359 346.385 258.359 343.016V342.604H131.343V343.016C131.343 346.385 134.076 349.117 137.445 349.117Z"
      fill="#FAFAF9"/>
    <path d="M102.24 338.325H287.462V304.671H102.24V338.325Z" fill="#EDEDEB"/>
    <path
      d="M137.445 308.269H252.256C255.627 308.269 258.359 305.537 258.359 302.168V301.756H131.343V302.168C131.343 305.537 134.076 308.269 137.445 308.269Z"
      fill="#FAFAF9"/>
    <path
      d="M137.445 389.965H252.256C255.627 389.965 258.359 387.233 258.359 383.863V383.452H131.343V383.863C131.343 387.233 134.075 389.965 137.445 389.965Z"
      fill="#FAFAF9"/>
    <path d="M98.7573 158.809H282.465V38.5072H98.7573V158.809Z" fill="#E2E2E0"/>
    <path d="M93.1521 158.809H279.847V38.5072H93.1521V158.809Z" fill="#EDEDEB"/>
    <path d="M98.7573 182.42H282.465V158.809H98.7573V182.42Z" fill="#E2E2E0"/>
    <path d="M83.814 182.42H270.507V158.809H83.814V182.42Z" fill="#EDEDEB"/>
    <path d="M100.999 150.961H271.998V46.354H100.999V150.961Z" fill="#FAFAF9"/>
    <path d="M233.44 150.963L211.599 46.3547H177.517L199.359 150.963H233.44Z" fill="white"/>
    <path
      d="M268.365 143.152C268.675 143.152 268.927 142.9 268.927 142.591V51.46C268.927 51.1507 268.675 50.8987 268.365 50.8987C268.056 50.8987 267.805 51.1507 267.805 51.46V142.591C267.805 142.9 268.056 143.152 268.365 143.152Z"
      fill="#EDEDEB"/>
    <path d="M192.037 150.963L170.196 46.3547H156.909L178.751 150.963H192.037Z" fill="white"/>
    <path d="M100.999 150.961H101.996V46.354H100.999V150.961Z" fill="#E2E2E0"/>
    <path d="M91.7036 58.1867H91.2964L92.0188 49.404H93.1521V54.3587H92.0188L91.7036 58.1867Z" fill="#F0F0EE"/>
    <path d="M275.319 54.3587H271.999V49.404H275.727L275.319 54.3587ZM100.999 54.3587H93.1521V49.404H100.999V54.3587Z"
          fill="#EAEAE7"/>
    <path
      d="M271.999 54.3587H268.927V51.46C268.927 51.1507 268.675 50.8986 268.365 50.8986C268.056 50.8986 267.805 51.1507 267.805 51.46V54.3587H213.269L212.236 49.404H271.999V54.3587ZM179.188 54.3587H171.867L170.833 49.404H178.155L179.188 54.3587ZM158.58 54.3587H101.996V49.404H157.545L158.58 54.3587Z"
      fill="#EEEEEC"/>
    <path d="M213.269 54.3587H179.188L178.155 49.404H212.236L213.269 54.3587Z" fill="#F0F0EE"/>
    <path
      d="M268.927 54.3587H267.805V51.46C267.805 51.1507 268.056 50.8986 268.365 50.8986C268.675 50.8986 268.927 51.1507 268.927 51.46V54.3587Z"
      fill="#EAEAE7"/>
    <path d="M171.867 54.3587H158.58L157.545 49.404H170.833L171.867 54.3587Z" fill="#F0F0EE"/>
    <path d="M100.999 54.3587H101.996V49.4045H100.999V54.3587Z" fill="#E5E5E3"/>
    <path d="M91.7036 63.14H91.2964L91.7036 58.1867H93.1521V59.312H92.0188L91.7036 63.14Z" fill="#F0F0EE"/>
    <path
      d="M275.319 59.312H271.999V58.1867H275.004L275.319 54.3587H275.727L275.319 59.312ZM100.999 59.312H93.1521V58.1867H100.999V59.312Z"
      fill="#EAEAE7"/>
    <path
      d="M271.999 59.312H268.927V58.1867H271.999V59.312ZM267.805 59.312H214.304L214.069 58.1867H267.805V59.312ZM180.223 59.312H172.901L172.667 58.1867H179.988L180.223 59.312ZM159.615 59.312H101.996V58.1867H159.38L159.615 59.312Z"
      fill="#EEEEEC"/>
    <path d="M214.304 59.312H180.223L179.988 58.1867H214.069L214.304 59.312Z" fill="#F0F0EE"/>
    <path d="M267.805 59.312H268.927V58.186H267.805V59.312Z" fill="#EAEAE7"/>
    <path d="M172.901 59.312H159.615L159.38 58.1867H172.667L172.901 59.312Z" fill="#F0F0EE"/>
    <path d="M100.999 59.312H101.996V58.186H100.999V59.312Z" fill="#E5E5E3"/>
    <path d="M93.1521 58.1867H91.7036L92.0188 54.3587H93.1521V58.1867Z" fill="#EBEBE9"/>
    <path d="M275.004 58.1867H271.999V54.3587H275.319L275.004 58.1867ZM100.999 58.1867H93.1521V54.3587H100.999V58.1867Z"
          fill="#E8E9E6"/>
    <path
      d="M271.999 58.1867H268.927V54.3587H271.999V58.1867ZM267.805 58.1867H214.069L213.269 54.3587H267.805V58.1867ZM179.988 58.1867H172.667L171.867 54.3587H179.188L179.988 58.1867ZM159.38 58.1867H101.996V54.3587H158.58L159.38 58.1867Z"
      fill="#EAEAE7"/>
    <path d="M214.069 58.1867H179.988L179.188 54.3587H213.269L214.069 58.1867Z" fill="#EBEBE8"/>
    <path d="M267.805 58.1867H268.927V54.3591H267.805V58.1867Z" fill="#E8E9E6"/>
    <path d="M172.667 58.1867H159.38L158.58 54.3587H171.867L172.667 58.1867Z" fill="#EBEBE8"/>
    <path d="M100.999 58.1867H101.996V54.3591H100.999V58.1867Z" fill="#E6E6E4"/>
    <path d="M91.7036 68.0947H91.2964L91.7036 63.14H93.1521V64.2666H92.0188L91.7036 68.0947Z" fill="#F0F0EE"/>
    <path
      d="M275.319 64.2667H271.999V63.14H275.004L275.319 59.312H275.727L275.319 64.2667ZM100.999 64.2667H93.1521V63.14H100.999V64.2667Z"
      fill="#EAEAE7"/>
    <path
      d="M271.999 64.2667H268.927V63.14H271.999V64.2667ZM267.805 64.2667H215.339L215.103 63.14H267.805V64.2667ZM181.257 64.2667H173.936L173.7 63.14H181.021L181.257 64.2667ZM160.649 64.2667H101.996V63.14H160.413L160.649 64.2667Z"
      fill="#EEEEEC"/>
    <path d="M215.339 64.2667H181.257L181.021 63.14H215.103L215.339 64.2667Z" fill="#F0F0EE"/>
    <path d="M267.805 64.2667H268.927V63.1401H267.805V64.2667Z" fill="#EAEAE7"/>
    <path d="M173.936 64.2667H160.649L160.413 63.14H173.7L173.936 64.2667Z" fill="#F0F0EE"/>
    <path d="M100.999 64.2667H101.996V63.1401H100.999V64.2667Z" fill="#E5E5E3"/>
    <path d="M93.1521 63.14H91.7036L92.0188 59.312H93.1521V63.14Z" fill="#EBEBE9"/>
    <path d="M275.004 63.14H271.999V59.312H275.319L275.004 63.14ZM100.999 63.14H93.1521V59.312H100.999V63.14Z"
          fill="#E8E9E6"/>
    <path
      d="M271.999 63.14H268.927V59.312H271.999V63.14ZM267.805 63.14H215.103L214.304 59.312H267.805V63.14ZM181.021 63.14H173.7L172.901 59.312H180.223L181.021 63.14ZM160.413 63.14H101.996V59.312H159.615L160.413 63.14Z"
      fill="#EAEAE7"/>
    <path d="M215.103 63.14H181.021L180.223 59.312H214.304L215.103 63.14Z" fill="#EBEBE8"/>
    <path d="M267.805 63.14H268.927V59.3124H267.805V63.14Z" fill="#E8E9E6"/>
    <path d="M173.7 63.14H160.413L159.615 59.312H172.901L173.7 63.14Z" fill="#EBEBE8"/>
    <path d="M100.999 63.14H101.996V59.3124H100.999V63.14Z" fill="#E6E6E4"/>
    <path d="M91.7036 73.048H91.2964L91.7036 68.0947H93.1521V69.22H92.0188L91.7036 73.048Z" fill="#F0F0EE"/>
    <path
      d="M275.319 69.22H271.999V68.0947H275.004L275.319 64.2666H275.727L275.319 69.22ZM100.999 69.22H93.1521V68.0947H100.999V69.22Z"
      fill="#EAEAE7"/>
    <path
      d="M271.999 69.22H268.927V68.0947H271.999V69.22ZM267.805 69.22H216.373L216.137 68.0947H267.805V69.22ZM182.292 69.22H174.969L174.735 68.0947H182.056L182.292 69.22ZM161.683 69.22H101.996V68.0947H161.448L161.683 69.22Z"
      fill="#EEEEEC"/>
    <path d="M216.373 69.22H182.292L182.056 68.0947H216.137L216.373 69.22Z" fill="#F0F0EE"/>
    <path d="M267.805 69.22H268.927V68.094H267.805V69.22Z" fill="#EAEAE7"/>
    <path d="M174.969 69.22H161.683L161.448 68.0947H174.735L174.969 69.22Z" fill="#F0F0EE"/>
    <path d="M100.999 69.22H101.996V68.094H100.999V69.22Z" fill="#E5E5E3"/>
    <path d="M93.1521 68.0947H91.7036L92.0188 64.2666H93.1521V68.0947Z" fill="#EBEBE9"/>
    <path d="M275.004 68.0947H271.999V64.2666H275.319L275.004 68.0947ZM100.999 68.0947H93.1521V64.2666H100.999V68.0947Z"
          fill="#E8E9E6"/>
    <path
      d="M271.999 68.0947H268.927V64.2666H271.999V68.0947ZM267.805 68.0947H216.137L215.339 64.2666H267.805V68.0947ZM182.056 68.0947H174.735L173.936 64.2666H181.257L182.056 68.0947ZM161.448 68.0947H101.996V64.2666H160.649L161.448 68.0947Z"
      fill="#EAEAE7"/>
    <path d="M216.137 68.0947H182.056L181.257 64.2666H215.339L216.137 68.0947Z" fill="#EBEBE8"/>
    <path d="M267.805 68.0947H268.927V64.2671H267.805V68.0947Z" fill="#E8E9E6"/>
    <path d="M174.735 68.0947H161.448L160.649 64.2666H173.936L174.735 68.0947Z" fill="#EBEBE8"/>
    <path d="M100.999 68.0947H101.996V64.2671H100.999V68.0947Z" fill="#E6E6E4"/>
    <path d="M91.7036 78.0013H91.2964L91.7036 73.048H93.1521V74.1733H92.0188L91.7036 78.0013Z" fill="#F0F0EE"/>
    <path
      d="M275.319 74.1733H271.999V73.048H275.004L275.319 69.22H275.727L275.319 74.1733ZM100.999 74.1733H93.1521V73.048H100.999V74.1733Z"
      fill="#EAEAE7"/>
    <path
      d="M271.999 74.1733H268.927V73.048H271.999V74.1733ZM267.805 74.1733H217.407L217.172 73.048H267.805V74.1733ZM183.325 74.1733H176.004L175.769 73.048H183.091L183.325 74.1733ZM162.717 74.1733H101.996V73.048H162.483L162.717 74.1733Z"
      fill="#EEEEEC"/>
    <path d="M217.407 74.1733H183.325L183.091 73.048H217.172L217.407 74.1733Z" fill="#F0F0EE"/>
    <path d="M267.805 74.1733H268.927V73.0473H267.805V74.1733Z" fill="#EAEAE7"/>
    <path d="M176.004 74.1733H162.717L162.483 73.048H175.769L176.004 74.1733Z" fill="#F0F0EE"/>
    <path d="M100.999 74.1733H101.996V73.0473H100.999V74.1733Z" fill="#E5E5E3"/>
    <path d="M93.1521 73.048H91.7036L92.0188 69.22H93.1521V73.048Z" fill="#EBEBE9"/>
    <path d="M275.004 73.048H271.999V69.22H275.319L275.004 73.048ZM100.999 73.048H93.1521V69.22H100.999V73.048Z"
          fill="#E8E9E6"/>
    <path
      d="M271.999 73.048H268.927V69.22H271.999V73.048ZM267.805 73.048H217.172L216.373 69.22H267.805V73.048ZM183.091 73.048H175.769L174.969 69.22H182.292L183.091 73.048ZM162.483 73.048H101.996V69.22H161.683L162.483 73.048Z"
      fill="#EAEAE7"/>
    <path d="M217.172 73.048H183.091L182.292 69.22H216.373L217.172 73.048Z" fill="#EBEBE8"/>
    <path d="M267.805 73.048H268.927V69.2204H267.805V73.048Z" fill="#E8E9E6"/>
    <path d="M175.769 73.048H162.483L161.683 69.22H174.969L175.769 73.048Z" fill="#EBEBE8"/>
    <path d="M100.999 73.048H101.996V69.2204H100.999V73.048Z" fill="#E6E6E4"/>
    <path d="M93.1521 82.956H91.2964L91.7036 78.0013H93.1521V82.956Z" fill="#F0F0EE"/>
    <path
      d="M275.004 82.956H271.999V78.0013H275.004L275.319 74.1733H275.727L275.004 82.956ZM100.999 82.956H93.1521V78.0013H100.999V82.956Z"
      fill="#EAEAE7"/>
    <path
      d="M271.999 82.956H268.927V78.0013H271.999V82.956ZM267.805 82.956H219.24L218.207 78.0013H267.805V82.956ZM185.159 82.956H177.837L176.804 78.0013H184.125L185.159 82.956ZM164.551 82.956H101.996V78.0013H163.516L164.551 82.956Z"
      fill="#EEEEEC"/>
    <path d="M219.24 82.956H185.159L184.125 78.0013H218.207L219.24 82.956Z" fill="#F0F0EE"/>
    <path d="M267.805 82.956H268.927V78.0013H267.805V82.956Z" fill="#EAEAE7"/>
    <path d="M177.837 82.956H164.551L163.516 78.0013H176.804L177.837 82.956Z" fill="#F0F0EE"/>
    <path d="M100.999 82.956H101.996V78.0013H100.999V82.956Z" fill="#E5E5E3"/>
    <path d="M93.1521 78.0013H91.7036L92.0188 74.1733H93.1521V78.0013Z" fill="#EBEBE9"/>
    <path d="M275.004 78.0013H271.999V74.1733H275.319L275.004 78.0013ZM100.999 78.0013H93.1521V74.1733H100.999V78.0013Z"
          fill="#E8E9E6"/>
    <path
      d="M271.999 78.0013H268.927V74.1733H271.999V78.0013ZM267.805 78.0013H218.207L217.407 74.1733H267.805V78.0013ZM184.125 78.0013H176.804L176.004 74.1733H183.325L184.125 78.0013ZM163.516 78.0013H101.996V74.1733H162.717L163.516 78.0013Z"
      fill="#EAEAE7"/>
    <path d="M218.207 78.0013H184.125L183.325 74.1733H217.407L218.207 78.0013Z" fill="#EBEBE8"/>
    <path d="M267.805 78.0013H268.927V74.1737H267.805V78.0013Z" fill="#E8E9E6"/>
    <path d="M176.804 78.0013H163.516L162.717 74.1733H176.004L176.804 78.0013Z" fill="#EBEBE8"/>
    <path d="M100.999 78.0013H101.996V74.1737H100.999V78.0013Z" fill="#E6E6E4"/>
    <path d="M128.018 291.092H134.369V220.303H128.018V291.092Z" fill="#F3F2F1"/>
    <path d="M128.835 291.044H130.63V220.253H128.835V291.044Z" fill="#FAFAF9"/>
    <path d="M131.381 291.044H132.084V220.253H131.381V291.044Z" fill="#FAFAF9"/>
    <path
      d="M107.684 295.407H154.703C154.703 292.136 152.051 289.484 148.779 289.484H113.607C110.336 289.484 107.684 292.136 107.684 295.407Z"
      fill="#EDEDEB"/>
    <path
      d="M119.78 264.249C120.785 264.249 121.607 263.427 121.607 262.423V216.009C121.607 215.004 120.785 214.183 119.78 214.183C118.775 214.183 117.953 215.004 117.953 216.009V262.423C117.953 263.427 118.775 264.249 119.78 264.249Z"
      fill="#EDEDEB"/>
    <path d="M102.765 237.129H159.621L153.081 197.397H109.305L102.765 237.129Z" fill="#DADBD8"/>
    <path
      d="M591.852 481.715C591.852 490.053 476.109 496.813 333.333 496.813C190.557 496.813 74.8145 490.053 74.8145 481.715C74.8145 473.377 190.557 466.617 333.333 466.617C476.109 466.617 591.852 473.377 591.852 481.715Z"
      fill="#F3F2F1"/>
    <path d="M139.264 221.228L137.493 196.64L138.823 196.544L140.593 221.133L139.264 221.228Z" fill="#406FBF"/>
    <path d="M140.844 243.176L140.177 233.925L141.508 233.829L142.175 243.08L140.844 243.176Z" fill="#406FBF"/>
    <path
      d="M450.281 346.947H164.737C158.279 346.947 152.615 341.661 152.149 335.204L138.12 140.364C137.655 133.905 142.559 128.621 149.016 128.621H434.56C441.019 128.621 446.683 133.905 447.148 140.364L461.179 335.204C461.643 341.661 456.74 346.947 450.281 346.947Z"
      fill="#406FBF"/>
    <path
      d="M451.376 346.947H165.832C159.373 346.947 153.709 341.661 153.244 335.204L139.215 140.364C138.749 133.905 143.653 128.621 150.111 128.621H435.655C442.113 128.621 447.777 133.905 448.243 140.364L462.273 335.204C462.737 341.661 457.835 346.947 451.376 346.947Z"
      fill="#406FBF"/>
    <path
      d="M448.619 346.947H439.412C438.277 341.904 437.453 337.811 437.089 335.176C436.756 332.765 436.601 330.283 436.601 327.739C436.601 327.659 436.603 327.579 436.603 327.5H443.805C444.544 327.5 445.224 327.312 445.805 326.981C445.945 328.184 446.089 329.373 446.236 330.544C446.237 330.54 446.237 330.535 446.239 330.529C446.636 333.689 447.059 336.733 447.508 339.62C447.86 341.881 448.232 344.333 448.619 346.947ZM406.691 346.947H256.924H165.832C159.373 346.947 153.709 341.661 153.244 335.204L139.215 140.364C139.193 140.073 139.183 139.787 139.184 139.501C139.193 133.441 143.943 128.621 150.111 128.621H383.437C383.239 129.6 383.156 130.673 383.265 131.777C383.363 132.712 383.603 133.637 383.939 134.492H150.533C150.211 134.492 149.892 134.505 149.577 134.532C142.277 135.132 143.769 146.235 151.136 146.235H395.771C400.767 149.66 405.9 152.457 411.099 155.117C412.175 155.668 413.253 156.208 414.332 156.737L414.063 158.756H158.451C156.1 158.756 154.331 160.661 154.5 163.012L166.039 323.243C166.208 325.593 168.251 327.5 170.601 327.5H402.897C403.093 331.331 403.547 334.925 404.305 338.203C404.939 340.94 405.744 343.869 406.691 346.947ZM433.676 149.597C431.74 148.401 429.128 147.248 426.4 146.235H437.167C437.949 146.235 438.649 146.109 439.264 145.884C438.84 146.536 438.348 147.835 438.145 148.997C436.629 149.179 435.121 149.384 433.676 149.597ZM440.577 145.167C444.225 142.369 443.011 135.017 437.04 134.532C436.721 134.505 436.4 134.492 436.077 134.492H397.799C396.676 133.675 395.633 132.825 394.727 131.977C394.476 131.733 394.193 131.489 393.995 131.251L393.463 130.681C393.345 130.564 393.329 130.549 393.305 130.549C393.297 130.549 393.288 130.551 393.276 130.551C393.272 130.553 393.268 130.555 393.264 130.555C393.168 130.555 393.183 129.788 393.793 128.777C393.823 128.725 393.853 128.673 393.885 128.621H435.655C441.867 128.621 447.344 133.509 448.167 139.629C448.231 140.284 448.252 140.931 448.219 141.559C445.12 142.429 442.72 143.307 442.297 143.797C442.165 143.951 442.056 144.357 441.985 144.888C441.436 144.98 440.961 145.073 440.577 145.167Z"
      fill="#90B4E3"/>
    <path
      d="M436.077 134.492H150.533C150.211 134.492 149.892 134.505 149.577 134.532C142.277 135.132 143.769 146.235 151.136 146.235H437.167C444.533 146.235 444.425 135.132 437.04 134.532C436.721 134.505 436.4 134.492 436.077 134.492Z"
      fill="#406FBF"/>
    <path
      d="M157.971 140.364C158.077 141.851 156.959 143.056 155.472 143.056C153.985 143.056 152.693 141.851 152.587 140.364C152.48 138.877 153.597 137.672 155.085 137.672C156.572 137.672 157.864 138.877 157.971 140.364Z"
      fill="#FAFAF9"/>
    <path
      d="M167.128 140.364C167.235 141.851 166.116 143.056 164.629 143.056C163.143 143.056 161.851 141.851 161.744 140.364C161.636 138.877 162.755 137.672 164.241 137.672C165.728 137.672 167.021 138.877 167.128 140.364Z"
      fill="#FAFAF9"/>
    <path
      d="M176.285 140.364C176.392 141.851 175.273 143.056 173.787 143.056C172.3 143.056 171.008 141.851 170.901 140.364C170.793 138.877 171.912 137.672 173.399 137.672C174.885 137.672 176.177 138.877 176.285 140.364Z"
      fill="#FAFAF9"/>
    <path
      d="M443.805 327.5H170.601C168.251 327.5 166.208 325.593 166.039 323.243L154.5 163.012C154.331 160.661 156.1 158.756 158.451 158.756H431.655C434.005 158.756 436.049 160.661 436.219 163.012L447.756 323.243C447.925 325.593 446.157 327.5 443.805 327.5Z"
      fill="white"/>
    <path d="M328.707 266.461L324.259 204.703L310.783 196.592H273.711L278.743 266.461H328.707Z" fill="white"/>
    <path
      d="M279.344 265.816H328.012L323.639 205.084L310.604 197.239H274.405L279.344 265.816ZM328.707 267.108H278.743C278.403 267.108 278.123 266.847 278.097 266.508L273.067 196.639C273.053 196.46 273.116 196.283 273.237 196.152C273.36 196.02 273.532 195.945 273.711 195.945H310.783L311.116 196.039L324.592 204.149C324.772 204.257 324.888 204.448 324.904 204.656L329.351 266.416C329.364 266.595 329.301 266.771 329.18 266.903C329.057 267.033 328.885 267.108 328.707 267.108Z"
      fill="#406FBF"/>
    <path d="M324.259 204.703L310.783 196.592L315.731 207.337L324.259 204.703Z" fill="#E7E8E5"/>
    <path
      d="M312.248 198.227L316.081 206.553L322.689 204.512L312.248 198.227ZM315.731 207.984C315.484 207.984 315.252 207.841 315.144 207.608L310.196 196.863C310.077 196.604 310.141 196.3 310.352 196.111C310.564 195.921 310.873 195.892 311.116 196.039L324.592 204.149C324.811 204.281 324.931 204.528 324.9 204.781C324.869 205.035 324.693 205.245 324.449 205.32L315.921 207.955L315.731 207.984Z"
      fill="#406FBF"/>
    <path
      d="M294.625 228.072C294.737 229.631 293.565 230.895 292.007 230.895C290.447 230.895 289.092 229.631 288.98 228.072C288.868 226.513 290.04 225.249 291.6 225.249C293.159 225.249 294.513 226.513 294.625 228.072Z"
      fill="#406FBF"/>
    <path
      d="M312.94 228.072C313.052 229.631 311.879 230.895 310.32 230.895C308.761 230.895 307.407 229.631 307.295 228.072C307.183 226.513 308.355 225.249 309.913 225.249C311.473 225.249 312.828 226.513 312.94 228.072Z"
      fill="#406FBF"/>
    <path
      d="M318.107 246.379C317.771 246.379 317.487 246.119 317.463 245.779C317.136 241.24 310.017 237.548 301.596 237.548C296.016 237.548 291.005 239.207 288.521 241.877C287.416 243.065 286.904 244.347 287.001 245.685C287.027 246.041 286.759 246.351 286.403 246.376C286.045 246.399 285.737 246.135 285.712 245.779C285.591 244.091 286.235 242.437 287.575 240.997C290.296 238.072 295.669 236.256 301.596 236.256C310.835 236.256 318.371 240.397 318.751 245.685C318.777 246.041 318.509 246.351 318.153 246.376L318.107 246.379Z"
      fill="#406FBF"/>
    <path
      d="M284.223 222.353C284.065 222.353 283.908 222.296 283.784 222.181C283.521 221.937 283.507 221.529 283.749 221.268L286.581 218.217C286.824 217.955 287.233 217.941 287.493 218.183C287.756 218.425 287.771 218.835 287.528 219.096L284.696 222.147C284.569 222.284 284.396 222.353 284.223 222.353Z"
      fill="#406FBF"/>
    <path
      d="M316.779 222.353C316.621 222.353 316.463 222.296 316.339 222.18L313.068 219.128C312.807 218.885 312.792 218.476 313.036 218.216C313.279 217.955 313.688 217.94 313.949 218.184L317.22 221.235C317.48 221.477 317.495 221.887 317.251 222.148C317.124 222.284 316.952 222.353 316.779 222.353Z"
      fill="#406FBF"/>
    <path
      d="M269.676 280.268H272.689L277.037 286.047L276.621 280.268H279.664L280.416 290.712H277.373L273.049 284.977L273.463 290.712H270.428L269.676 280.268Z"
      fill="#406FBF"/>
    <path
      d="M285.007 285.512C285.083 286.565 285.333 287.323 285.759 287.784C286.183 288.244 286.733 288.475 287.407 288.475C288.1 288.475 288.621 288.249 288.968 287.797C289.316 287.347 289.448 286.537 289.364 285.369C289.292 284.385 289.043 283.668 288.613 283.213C288.184 282.76 287.629 282.533 286.951 282.533C286.3 282.533 285.795 282.764 285.433 283.225C285.072 283.685 284.931 284.448 285.007 285.512ZM281.779 285.497C281.656 283.792 282.035 282.464 282.916 281.515C283.799 280.565 285.087 280.089 286.781 280.089C288.52 280.089 289.893 280.557 290.9 281.489C291.908 282.423 292.472 283.731 292.593 285.412C292.681 286.632 292.548 287.633 292.193 288.415C291.839 289.196 291.289 289.804 290.544 290.239C289.799 290.672 288.847 290.889 287.688 290.889C286.511 290.889 285.521 290.703 284.723 290.327C283.924 289.952 283.256 289.359 282.717 288.545C282.18 287.735 281.867 286.717 281.779 285.497Z"
      fill="#406FBF"/>
    <path
      d="M302.267 282.633L302.679 288.34H303.469C304.143 288.34 304.617 288.265 304.892 288.115C305.165 287.965 305.371 287.704 305.505 287.332C305.64 286.959 305.677 286.355 305.616 285.519C305.537 284.412 305.301 283.655 304.912 283.245C304.521 282.837 303.908 282.633 303.072 282.633H302.267ZM298.869 280.268H303.664C304.609 280.268 305.381 280.396 305.983 280.653C306.583 280.909 307.089 281.277 307.504 281.757C307.919 282.237 308.235 282.795 308.451 283.431C308.668 284.068 308.803 284.741 308.853 285.455C308.933 286.571 308.869 287.436 308.659 288.051C308.449 288.667 308.133 289.181 307.712 289.597C307.292 290.012 306.827 290.289 306.319 290.427C305.625 290.616 304.991 290.712 304.416 290.712H299.621L298.869 280.268Z"
      fill="#406FBF"/>
    <path
      d="M315.765 286.729L314.341 282.975L313.472 286.729H315.765ZM316.597 288.988H312.933L312.548 290.712H309.253L312.427 280.268H315.947L320.623 290.712H317.244L316.597 288.988Z"
      fill="#406FBF"/>
    <path
      d="M319.159 280.268H328.968L329.153 282.847H325.863L326.429 290.712H323.201L322.636 282.847H319.344L319.159 280.268Z"
      fill="#406FBF"/>
    <path
      d="M335.655 286.729L334.232 282.975L333.361 286.729H335.655ZM336.487 288.988H332.823L332.439 290.712H329.143L332.316 280.268H335.836L340.513 290.712H337.133L336.487 288.988Z"
      fill="#406FBF"/>
    <path
      d="M471.584 157.504C472.776 156.908 474.196 156.135 475.509 155.415C476.847 154.679 478.177 153.913 479.488 153.116C482.1 151.508 484.732 149.919 487.232 148.152C492.275 144.679 496.999 140.825 501.248 136.615C501.805 136.105 502.279 135.541 502.795 135.003L503.555 134.187L503.936 133.779L504.127 133.575L504.14 133.563L504.099 133.628C503.908 133.984 504.067 133.876 504.14 133.532C504.229 133.201 504.304 132.661 504.328 132.077C504.413 129.656 503.935 126.605 503.356 123.653C502.168 117.673 500.372 111.523 498.595 105.496L503.776 103.225C507.02 109.02 509.725 114.937 511.925 121.355C512.973 124.605 513.937 127.869 514.217 131.88C514.269 132.901 514.292 133.975 514.107 135.227C513.912 136.459 513.6 137.933 512.476 139.605L512.255 139.913L512.083 140.137L511.877 140.387L511.467 140.887L510.643 141.885C510.087 142.544 509.56 143.239 508.969 143.856C504.371 148.961 499.256 153.471 493.796 157.391C491.08 159.376 488.303 161.263 485.419 162.977C483.983 163.847 482.528 164.681 481.049 165.492C479.552 166.324 478.128 167.048 476.427 167.845L471.584 157.504Z"
      fill="#F89E63"/>
    <path
      d="M461.925 470.19C459.981 470.578 458.519 470.512 457.953 469.996C457.712 469.777 457.624 469.47 457.683 469.056C457.713 468.832 457.816 468.759 457.903 468.72C458.587 468.411 460.543 469.355 461.925 470.19ZM459.725 470.97C460.757 470.97 461.885 470.756 462.673 470.569L462.873 470.357L462.759 470.09C462.376 469.839 458.984 467.651 457.684 468.239C457.48 468.331 457.221 468.535 457.159 468.981C457.075 469.573 457.223 470.047 457.597 470.387C458.073 470.821 458.867 470.97 459.725 470.97Z"
      fill="#406FBF"/>
    <path
      d="M460.713 466.049C460.929 466.049 461.123 466.125 461.297 466.281C462.023 466.923 462.272 468.727 462.332 469.797C461.271 468.949 460.004 467.14 460.157 466.373C460.183 466.247 460.255 466.097 460.592 466.056L460.713 466.049ZM462.613 470.576L462.747 470.54L462.877 470.312C462.877 470.175 462.863 466.96 461.648 465.885C461.325 465.599 460.951 465.48 460.529 465.532C459.867 465.612 459.687 466.028 459.639 466.269C459.387 467.528 461.417 469.937 462.483 470.541L462.613 470.576Z"
      fill="#406FBF"/>
    <path
      d="M461.631 124.153C460.332 130.78 457.595 144.203 462.231 148.625C462.231 148.625 460.419 155.348 448.105 155.348C434.564 155.348 441.633 148.627 441.633 148.627C449.024 146.861 448.833 141.379 447.545 136.229L461.631 124.153Z"
      fill="#F89E63"/>
    <path
      d="M439.045 151.297C436.92 151.585 438.728 146.079 439.592 145.508C441.587 144.191 467.393 142.323 467.225 145.455C467.119 146.801 466.485 149.433 465.357 150.327C464.909 150.68 463.599 150.471 461.025 150.26C457.103 149.94 450.248 149.62 439.045 151.297Z"
      fill="#17282F"/>
    <path
      d="M443.249 149.443C441.561 150.015 441.721 144.467 442.297 143.797C443.627 142.253 464.515 136.887 465.136 139.924C465.375 141.235 465.489 143.853 464.773 144.869C464.056 145.885 457.919 144.205 443.249 149.443Z"
      fill="#17282F"/>
    <path
      d="M435.48 112.208C435.317 112.219 435.151 112.152 435.039 112.015C433.545 110.188 431.605 110.375 431.587 110.377C431.292 110.408 431.035 110.199 431.003 109.908C430.972 109.619 431.181 109.357 431.472 109.325C431.575 109.315 434.005 109.079 435.859 111.345C436.044 111.571 436.009 111.904 435.784 112.089L435.48 112.208Z"
      fill="#17282F"/>
    <path
      d="M432.896 118.732C432.896 118.732 431.755 122.741 430.264 124.768C431.556 125.757 433.519 125.053 433.519 125.053L432.896 118.732Z"
      fill="#F14358"/>
    <path
      d="M433.547 117.113C433.636 118.009 433.232 118.783 432.645 118.841C432.06 118.899 431.513 118.219 431.425 117.323C431.337 116.425 431.74 115.652 432.327 115.595C432.912 115.536 433.459 116.216 433.547 117.113Z"
      fill="#17282F"/>
    <path d="M432.591 115.619L430.376 115.209C430.376 115.209 431.647 116.783 432.591 115.619Z" fill="#17282F"/>
    <path d="M475.6 470.312H464.432L465.308 444.448H476.476L475.6 470.312Z" fill="#F89E63"/>
    <path
      d="M463.548 469.019H476.095C476.552 469.019 476.921 469.336 476.987 469.781L478.416 479.709C478.564 480.739 477.679 481.713 476.625 481.695C472.251 481.619 470.143 481.363 464.625 481.363C461.231 481.363 456.271 481.715 451.583 481.715C446.999 481.715 446.645 477.08 448.597 476.66C457.349 474.777 458.732 472.182 461.681 469.705C462.212 469.259 462.88 469.019 463.548 469.019Z"
      fill="#17282F"/>
    <path d="M476.033 457.787H476.025L476.112 455.205H476.119L476.033 457.787Z" fill="#C3C5C2"/>
    <path d="M476.025 457.787H464.86L464.947 455.205H476.112L476.025 457.787Z" fill="#DC834C"/>
    <path
      d="M431.164 164.123C424.255 161.419 417.663 158.475 411.099 155.117C404.544 151.764 398.093 148.192 391.892 143.42C390.349 142.204 388.823 140.877 387.329 139.325C386.959 138.925 386.587 138.556 386.221 138.096C385.837 137.613 385.548 137.331 385.049 136.588C384.148 135.293 383.451 133.552 383.265 131.777C383.091 129.999 383.408 128.301 383.92 126.949C384.429 125.572 385.097 124.448 385.796 123.473C387.197 121.52 388.749 120.077 390.315 118.78C393.439 116.195 396.743 114.313 400.052 112.557C401.705 111.68 403.391 110.889 405.097 110.161C406.812 109.42 408.485 108.733 410.305 108.107L412.672 113.244C406.857 116.909 400.832 120.939 396.404 125.456C395.328 126.575 394.387 127.747 393.793 128.777C393.16 129.827 393.167 130.612 393.276 130.551C393.331 130.551 393.308 130.527 393.463 130.681L393.995 131.251C394.193 131.489 394.476 131.733 394.727 131.977C395.775 132.956 397.001 133.937 398.327 134.869C400.972 136.753 403.889 138.516 406.904 140.163C409.911 141.832 413.001 143.429 416.151 144.945C422.435 147.953 428.948 150.849 435.34 153.495L431.164 164.123Z"
      fill="#F89E63"/>
    <path
      d="M415.959 109.603L417.805 105.597L409.411 102.683C409.411 102.683 406.796 110.553 409.913 114.184C412.567 113.761 414.833 112.043 415.959 109.603Z"
      fill="#F89E63"/>
    <path d="M417.805 96.9387L411.095 95.004L409.411 102.683L417.805 105.597V96.9387Z" fill="#F89E63"/>
    <path
      d="M504.467 105.985L505.444 96.6254L496.793 98.6587C496.793 98.6587 496.667 107.433 501.243 108.831L504.467 105.985Z"
      fill="#F89E63"/>
    <path d="M501.277 90.0733L495.641 92.7053L496.793 98.6587L505.444 96.6254L501.277 90.0733Z" fill="#F89E63"/>
    <path
      d="M463.387 111.071C463.795 122.148 464.203 126.828 459.197 133.025C451.669 142.349 437.975 140.427 434.267 129.695C430.929 120.035 430.825 103.543 441.171 98.1013C451.364 92.74 462.98 99.9947 463.387 111.071Z"
      fill="#F89E63"/>
    <path
      d="M458.561 133.005C469.436 128.305 476.588 118.399 473.568 102.905C470.68 88.0853 460.673 86.62 456.54 89.6947C452.407 92.7707 442.104 88.1867 435.921 93.3907C425.209 102.405 435.337 112.123 440.612 117.883C443.764 124.36 447.892 137.616 458.561 133.005Z"
      fill="#17282F"/>
    <path
      d="M454.047 100.247C457.715 105.559 464.753 107.06 469.767 103.597C474.779 100.135 475.868 93.0227 472.2 87.7093C468.531 82.396 461.492 80.896 456.479 84.3587C451.467 87.82 450.377 94.9333 454.047 100.247Z"
      fill="#406FBF"/>
    <path
      d="M456.869 90.7333C455.3 81.8027 463.751 74.916 475.051 78.244C486.351 81.572 480.373 91.5893 478.056 99.5893C475.74 107.589 481.821 115.208 484.363 109.116C486.904 103.024 482.632 101.144 482.632 101.144C482.632 101.144 494.629 104.253 483.484 117.78C472.337 131.307 462.247 116.371 464.975 107.556C467.18 100.432 458.353 99.176 456.869 90.7333Z"
      fill="#17282F"/>
    <path
      d="M445.576 94.108C440.417 91.4173 431.681 89.2413 426.709 97.6066C424.359 101.561 425.269 106.925 425.269 106.925L440.455 107.936L445.576 94.108Z"
      fill="#17282F"/>
    <path
      d="M423.483 104.301L423.461 104.3C423.277 104.289 423.139 104.131 423.149 103.947C423.164 103.72 423.531 98.356 426.768 94.992C434.593 86.8614 443.768 93.6053 446.393 95.8667C446.533 95.9867 446.548 96.1973 446.428 96.336C446.308 96.476 446.097 96.4907 445.959 96.372C443.445 94.208 434.668 87.7453 427.249 95.4533C424.183 98.64 423.819 103.935 423.815 103.989C423.804 104.165 423.657 104.301 423.483 104.301Z"
      fill="#17282F"/>
    <path
      d="M442.471 117.443C442.453 119.6 441.488 121.713 440.263 123.145C438.42 125.3 436.308 124.239 435.824 121.849C435.388 119.699 435.82 115.987 438.149 114.685C440.444 113.403 442.489 114.975 442.471 117.443Z"
      fill="#F89E63"/>
    <path
      d="M440.071 218.893C440.071 218.893 440.783 296.419 447.508 339.62C452.94 374.513 462.992 455.205 462.992 455.205H478.223C478.223 455.205 479.711 377.307 476.953 342.795C469.976 255.464 487.981 239.137 473.452 218.893H440.071Z"
      fill="#17282F"/>
    <path
      d="M478.223 455.205H462.992C462.992 455.205 462.685 452.736 462.148 448.475L466.777 446.419L462.124 436.727L460.132 432.578C460.103 432.344 460.073 432.111 460.043 431.873L461.311 431.237C461.311 431.237 460.336 427.717 458.777 422.007C455.38 395.621 450.664 359.893 447.508 339.62C447.059 336.733 446.636 333.689 446.239 330.529C448.528 317.797 451.644 292.393 450.304 270.739C456.097 253.467 461.632 236.237 462.092 220.928H474.811C478.191 226.395 479.299 231.76 479.299 238.535C479.299 245.588 478.097 254.172 477.008 265.995C476.788 268.389 476.572 270.915 476.371 273.589C475.749 281.876 475.277 291.573 475.277 303.105C475.277 314.432 475.733 327.528 476.953 342.795C478.279 359.393 478.623 386.028 478.623 409.205C478.623 419.383 478.557 428.895 478.479 436.596C478.477 436.707 478.476 436.819 478.475 436.929C478.361 447.97 478.223 455.205 478.223 455.205ZM443.367 300.627C443.193 298.272 443.029 295.905 442.873 293.541V293.539C443.029 295.907 443.193 298.269 443.367 300.627Z"
      fill="#2B3C43"/>
    <path
      d="M446.236 330.544C446.089 329.373 445.945 328.184 445.805 326.981C445.807 326.981 445.808 326.98 445.808 326.98C445.949 328.18 446.092 329.36 446.239 330.529C446.237 330.535 446.237 330.54 446.236 330.544Z"
      fill="#627FB7"/>
    <path
      d="M445.805 326.981C444.841 318.712 444.037 309.741 443.367 300.627C444.037 309.741 444.843 318.709 445.808 326.98C445.808 326.98 445.807 326.981 445.805 326.981Z"
      fill="#A7A9A8"/>
    <path
      d="M446.239 330.529C446.092 329.36 445.949 328.18 445.808 326.98C444.843 318.709 444.037 309.741 443.367 300.627C443.193 298.269 443.029 295.907 442.873 293.539C445.123 286.04 447.739 278.385 450.304 270.739C451.644 292.393 448.528 317.797 446.239 330.529Z"
      fill="#1B262A"/>
    <path d="M460.909 455.507H480.307L481.325 448.701L460.797 448.007L460.909 455.507Z" fill="#406FBF"/>
    <path
      d="M466.444 153.453C468.269 149.825 478.077 147.543 483.439 147.551L487.452 165.371C487.452 165.371 476.771 181.224 472.328 179.543C467.08 177.56 462.535 161.227 466.444 153.453Z"
      fill="#406FBF"/>
    <path
      d="M475.792 178.593C477.063 171.177 478.895 162.319 481.492 151.163C481.492 151.163 477.611 150.319 472.261 149.587C475.888 148.287 480.36 147.551 483.408 147.551C483.419 147.551 483.429 147.551 483.439 147.551L487.452 165.371C487.452 165.371 480.783 175.269 475.792 178.593Z"
      fill="#2251AA"/>
    <path
      d="M449.216 453.199C449.673 452.451 452.224 451.76 454.173 451.402C452.413 453.19 450.865 454.187 449.959 454.094C449.641 454.06 449.399 453.895 449.213 453.587L449.187 453.252L449.216 453.199ZM455.137 451.148L455.145 450.887L454.872 450.749C454.312 450.833 449.376 451.616 448.708 453.025C448.58 453.299 448.597 453.587 448.76 453.859C449.032 454.313 449.417 454.569 449.904 454.619C451.521 454.787 453.857 452.543 455.105 451.189L455.137 451.148Z"
      fill="#406FBF"/>
    <path
      d="M449.917 449.47L450.128 449.229C450.428 448.961 450.776 448.843 451.193 448.871C452.391 448.949 453.751 450.188 454.371 450.819C452.791 450.952 450.229 450.473 449.883 449.785C449.863 449.744 449.811 449.643 449.917 449.47ZM455.137 451.148L455.161 451.096L455.112 450.839C455.028 450.741 453.051 448.463 451.228 448.343C450.669 448.307 450.18 448.472 449.775 448.836C449.227 449.327 449.273 449.753 449.411 450.024C449.988 451.168 453.535 451.566 454.965 451.269L455.137 451.148Z"
      fill="#406FBF"/>
    <path
      d="M466.777 446.419L456.563 450.955L452.011 441.483L446.063 429.076L445.365 427.635L455.568 423.089L456.357 424.713L462.124 436.727L466.777 446.419Z"
      fill="#F89E63"/>
    <path d="M452.011 441.483L449.856 436.988L459.843 431.975L462.124 436.727L452.011 441.483Z" fill="#DC834C"/>
    <path
      d="M428.092 218.893C428.092 218.893 395.461 300.007 404.305 338.203C412.299 372.723 447.644 438.097 447.644 438.097L461.311 431.237C461.311 431.237 439.46 352.32 437.089 335.176C432.477 301.817 462.124 254.731 462.124 218.893H428.092Z"
      fill="#17282F"/>
    <path
      d="M447.644 438.097C447.644 438.097 444.339 431.983 439.521 422.508C437.395 418.325 434.972 413.487 432.411 408.229C426.699 396.511 420.291 382.719 414.892 369.465C412.2 362.857 409.759 356.38 407.781 350.368C406.355 346.032 405.171 341.939 404.305 338.203C403.252 333.652 402.787 328.492 402.785 322.933C402.775 286.06 423.151 231.613 427.344 220.799C427.483 220.88 427.667 220.928 427.868 220.928H462.092C461.632 236.237 456.097 253.467 450.304 270.739C447.739 278.385 445.123 286.04 442.873 293.539V293.541C439.295 305.472 436.644 317.011 436.603 327.5C436.603 327.579 436.601 327.659 436.601 327.739C436.601 330.283 436.756 332.765 437.089 335.176C439.46 352.32 461.311 431.237 461.311 431.237L460.043 431.873L459.843 431.975L449.856 436.988L447.644 438.097Z"
      fill="#2B3C43"/>
    <path
      d="M454.74 449.536L464.885 442.152C465.253 441.883 465.74 441.921 466.055 442.244L473.052 449.429C473.777 450.175 473.636 451.484 472.773 452.088C469.192 454.602 467.336 455.635 462.875 458.882C460.131 460.88 454.661 465.296 450.871 468.055C447.164 470.753 444.151 467.213 445.483 465.725C451.451 459.052 452.708 454.927 453.635 451.189C453.803 450.515 454.2 449.928 454.74 449.536Z"
      fill="#17282F"/>
    <path d="M446.764 440.989L464.405 432.921L462.141 425.732L443.251 434.349L446.764 440.989Z" fill="#406FBF"/>
    <path
      d="M436.752 152.545C435.288 148.757 422.543 144.603 416.148 143.152L413.339 164.176C413.339 164.176 423.78 179.183 428.364 177.94C433.78 176.476 439.888 160.66 436.752 152.545Z"
      fill="#406FBF"/>
    <path
      d="M422.172 174.684C417.801 170.589 413.339 164.176 413.339 164.176L416.148 143.152C420.895 144.228 429.143 146.796 433.676 149.597C427.683 150.479 422.755 151.487 422.755 151.487C422.755 151.487 421.428 151.955 421.427 160.591C421.427 163.924 421.624 168.473 422.172 174.684Z"
      fill="#2251AA"/>
    <path
      d="M422.755 151.487C422.755 151.487 417.435 153.361 428.092 218.893C446.092 218.893 464.693 218.893 473.452 218.893C472.691 200.433 472.669 189.049 481.492 151.163C481.492 151.163 471.988 149.096 462.231 148.625C454.597 148.257 448.344 148.013 441.633 148.627C432.787 149.433 422.755 151.487 422.755 151.487Z"
      fill="#406FBF"/>
    <path
      d="M473.333 215.891H427.608C422.677 185.059 421.427 168.975 421.427 160.591C421.428 151.955 422.755 151.487 422.755 151.487C422.755 151.487 432.787 149.433 441.633 148.627C444.591 148.356 447.457 148.253 450.395 148.253C454.123 148.253 457.961 148.42 462.231 148.625C471.988 149.096 481.492 151.163 481.492 151.163C478.895 162.319 477.063 171.177 475.792 178.593C475.565 179.913 475.357 181.187 475.165 182.42C473.609 192.417 473.143 199.735 473.143 206.945C473.143 209.887 473.22 212.811 473.333 215.891Z"
      fill="#2251AA"/>
    <path
      d="M474.131 216.232L476.176 220.292C476.335 220.607 475.961 220.928 475.437 220.928H427.868C427.459 220.928 427.12 220.728 427.095 220.471L426.685 216.411C426.657 216.129 427.012 215.891 427.459 215.891H473.392C473.729 215.891 474.028 216.029 474.131 216.232Z"
      fill="#406FBF"/>
    <path
      d="M475.437 220.928H427.868C427.667 220.928 427.483 220.88 427.344 220.799C427.201 220.717 427.108 220.601 427.095 220.471L426.685 216.411C426.684 216.4 426.684 216.388 426.684 216.377C426.685 216.111 427.029 215.891 427.459 215.891H473.392C473.729 215.891 474.028 216.029 474.131 216.232L476.176 220.292C476.201 220.341 476.213 220.391 476.213 220.439C476.215 220.7 475.88 220.928 475.437 220.928Z"
      fill="#6D97D6"/>
    <path
      d="M467.961 221.368H469.192C469.437 221.368 469.624 221.241 469.607 221.087L469.029 215.812C469.013 215.657 468.799 215.531 468.553 215.531H467.324C467.079 215.531 466.892 215.657 466.909 215.812L467.485 221.087C467.503 221.241 467.717 221.368 467.961 221.368Z"
      fill="#17282F"/>
    <path
      d="M438.143 221.368H439.373C439.619 221.368 439.805 221.241 439.788 221.087L439.212 215.812C439.195 215.657 438.98 215.531 438.735 215.531H437.505C437.26 215.531 437.073 215.657 437.091 215.812L437.667 221.087C437.684 221.241 437.899 221.368 438.143 221.368Z"
      fill="#17282F"/>
  </g>
  <defs>
    <clipPath id="clip0_1_2">
      <rect fill="white" height="496.813" width="666.667"/>
    </clipPath>
  </defs>
</svg>
