<svg fill="none" height="515" id="not-found" viewBox="0 0 667 515" width="667" xmlns="http://www.w3.org/2000/svg">
  <g clip-path="url(#clip0_1_263)">
    <path
      d="M350.899 0.336004C346.773 0.336004 343.416 3.69335 343.416 7.81869V358.849C343.416 362.976 346.773 366.332 350.899 366.332H591.893C596.02 366.332 599.377 362.976 599.377 358.849V7.81869C599.377 3.69335 596.02 0.336004 591.893 0.336004H350.899ZM591.893 366.665H350.899C346.589 366.665 343.083 363.159 343.083 358.849V7.81869C343.083 3.50802 346.589 0.00267078 350.899 0.00267078H591.893C596.204 0.00267078 599.711 3.50802 599.711 7.81869V358.849C599.711 363.159 596.204 366.665 591.893 366.665Z"
      fill="#EDEDEB"/>
    <path
      d="M72.9948 0.336004C68.8693 0.336004 65.5125 3.69335 65.5125 7.81869V358.849C65.5125 362.976 68.8693 366.332 72.9948 366.332H313.991C318.116 366.332 321.473 362.976 321.473 358.849V7.81869C321.473 3.69335 318.116 0.336004 313.991 0.336004H72.9948ZM313.991 366.665H72.9948C68.6849 366.665 65.1792 363.159 65.1792 358.849V7.81869C65.1792 3.50802 68.6849 0.00267078 72.9948 0.00267078H313.991C318.3 0.00267078 321.807 3.50802 321.807 7.81869V358.849C321.807 363.159 318.3 366.665 313.991 366.665Z"
      fill="#EDEDEB"/>
    <path d="M0 448.425H666.665V448.09H0V448.425Z" fill="#DADBD8"/>
    <path
      d="M240.573 33.8707H282.668C283.773 33.8707 284.668 32.9747 284.668 31.8707V22.368C284.668 21.264 283.773 20.368 282.668 20.368H240.573C239.469 20.368 238.573 21.264 238.573 22.368V31.8707C238.573 32.9747 239.469 33.8707 240.573 33.8707Z"
      fill="#EDEDEB"/>
    <path
      d="M215.431 51.092H257.527C258.631 51.092 259.527 50.196 259.527 49.092V39.5894C259.527 38.4854 258.631 37.5894 257.527 37.5894H215.431C214.327 37.5894 213.431 38.4854 213.431 39.5894V49.092C213.431 50.196 214.327 51.092 215.431 51.092Z"
      fill="#EDEDEB"/>
    <path
      d="M128.239 236.405H86.1437C85.0396 236.405 84.1437 235.511 84.1437 234.405V224.903C84.1437 223.799 85.0396 222.903 86.1437 222.903H128.239C129.344 222.903 130.239 223.799 130.239 224.903V234.405C130.239 235.511 129.344 236.405 128.239 236.405Z"
      fill="#EDEDEB"/>
    <path
      d="M153.381 253.627H111.286C110.182 253.627 109.286 252.731 109.286 251.627V242.124C109.286 241.02 110.182 240.124 111.286 240.124H153.381C154.487 240.124 155.381 241.02 155.381 242.124V251.627C155.381 252.731 154.487 253.627 153.381 253.627Z"
      fill="#EDEDEB"/>
    <path
      d="M533.921 250.024H491.827C490.721 250.024 489.827 249.128 489.827 248.024V238.521C489.827 237.417 490.721 236.521 491.827 236.521H533.921C535.025 236.521 535.921 237.417 535.921 238.521V248.024C535.921 249.128 535.025 250.024 533.921 250.024Z"
      fill="#EDEDEB"/>
    <path
      d="M584.207 250.024H542.111C541.007 250.024 540.111 249.128 540.111 248.024V238.521C540.111 237.417 541.007 236.521 542.111 236.521H584.207C585.311 236.521 586.207 237.417 586.207 238.521V248.024C586.207 249.128 585.311 250.024 584.207 250.024Z"
      fill="#EDEDEB"/>
    <path
      d="M559.064 267.245H516.969C515.864 267.245 514.969 266.349 514.969 265.245V255.743C514.969 254.637 515.864 253.743 516.969 253.743H559.064C560.168 253.743 561.064 254.637 561.064 255.743V265.245C561.064 266.349 560.168 267.245 559.064 267.245Z"
      fill="#EDEDEB"/>
    <path d="M561.012 333.473V448.092H609.104V333.473H561.012Z" fill="#E2E2E0"/>
    <path d="M572.295 448.092H457.676V333.473H572.295V448.092Z" fill="#F3F2F1"/>
    <path d="M523.653 447.759H509.491V333.473H523.653V447.759Z" fill="#FAFAF9"/>
    <path d="M166.104 333.473V448.092H214.195V333.473H166.104Z" fill="#E2E2E0"/>
    <path d="M62.7672 448.09H177.387V333.473H62.7672V448.09Z" fill="#F3F2F1"/>
    <path d="M114.581 447.759H128.743V333.473H114.581V447.759Z" fill="#FAFAF9"/>
    <path d="M409.585 448.09H457.676V394.439H409.585V448.09Z" fill="#E2E2E0"/>
    <path d="M420.868 448.092H306.249V394.439H420.868V448.092Z" fill="#F3F2F1"/>
    <path d="M372.224 447.936H358.063V394.439H372.224V447.936Z" fill="#FAFAF9"/>
    <path d="M188.577 279.82V333.473H236.668V279.82H188.577Z" fill="#E2E2E0"/>
    <path d="M199.86 333.473H85.2401V279.82H199.86V333.473Z" fill="#F3F2F1"/>
    <path d="M151.217 333.317H137.056V279.82H151.217V333.317Z" fill="#FAFAF9"/>
    <path d="M473.549 131.056H368.187V25.6947H473.549V131.056Z" fill="#E2E2E0"/>
    <path d="M373.52 125.723V31.028H468.215V125.723H373.52Z" fill="#FAFAF9"/>
    <path d="M414.52 104.217C414.52 104.217 431.908 68.568 468.215 67.8534V125.723H420.868L414.52 104.217Z"
          fill="#EDEDEB"/>
    <path
      d="M373.52 94.208C373.52 94.208 389.156 86.012 405.049 92.028C425.004 99.584 436.576 125.723 436.576 125.723H373.52V94.208Z"
      fill="#F3F2F1"/>
    <path
      d="M422.713 61.048C422.713 70.2747 415.232 77.7547 406.005 77.7547C396.777 77.7547 389.299 70.2747 389.299 61.048C389.299 51.82 396.777 44.3414 406.005 44.3414C415.232 44.3414 422.713 51.82 422.713 61.048Z"
      fill="white"/>
    <path d="M81.3021 204.647H173.739V25.6947H81.3021V204.647Z" fill="#E2E2E0"/>
    <path d="M86.6355 199.313V31.028H168.405V199.313H86.6355Z" fill="#FAFAF9"/>
    <path
      d="M131.656 83.1746C131.656 92.4013 124.177 99.8813 114.949 99.8813C105.722 99.8813 98.2421 92.4013 98.2421 83.1746C98.2421 73.9466 105.722 66.4666 114.949 66.4666C124.177 66.4666 131.656 73.9466 131.656 83.1746Z"
      fill="white"/>
    <path d="M101.922 199.313C101.922 199.313 122.617 99.8066 168.405 90.872V199.313H127.52H101.922Z" fill="#EDEDEB"/>
    <path
      d="M86.6355 140.259C86.6355 140.259 97.1698 130.1 113.86 136.173C145.223 147.584 162.728 199.313 162.728 199.313H86.6355V140.259Z"
      fill="#F3F2F1"/>
    <path
      d="M565.931 76.1107C565.931 91.5267 553.433 104.024 538.016 104.024C522.6 104.024 510.103 91.5267 510.103 76.1107C510.103 60.6933 522.6 48.196 538.016 48.196C553.433 48.196 565.931 60.6933 565.931 76.1107Z"
      fill="#DADBD8"/>
    <path
      d="M538.016 101.824C523.837 101.824 512.303 90.2894 512.303 76.1107C512.303 61.9307 523.837 50.396 538.016 50.396C552.195 50.396 563.729 61.9307 563.729 76.1107C563.729 90.2894 552.195 101.824 538.016 101.824Z"
      fill="#FAFAF9"/>
    <path d="M538.085 58.096H537.123V52.7346H538.085V58.096Z" fill="#DADBD8"/>
    <path d="M538.085 99.3493H537.123V93.9853H538.085V99.3493Z" fill="#DADBD8"/>
    <path d="M519.66 75.56V76.5227H514.296V75.56H519.66Z" fill="#DADBD8"/>
    <path d="M560.912 75.56V76.5227H555.549V75.56H560.912Z" fill="#DADBD8"/>
    <path d="M550.633 63.6934L549.952 63.012L553.744 59.22L554.425 59.9013L550.633 63.6934Z" fill="#DADBD8"/>
    <path d="M521.463 92.8627L520.781 92.1827L524.575 88.3894L525.256 89.0707L521.463 92.8627Z" fill="#DADBD8"/>
    <path d="M525.256 63.012L524.575 63.6934L520.781 59.9013L521.463 59.22L525.256 63.012Z" fill="#DADBD8"/>
    <path d="M554.425 92.1827L553.744 92.8627L549.952 89.0707L550.633 88.3894L554.425 92.1827Z" fill="#DADBD8"/>
    <path d="M546.216 79.752L537.123 76.172L537.425 75.404L546.517 78.9853L546.216 79.752Z" fill="#DADBD8"/>
    <path d="M538.016 76.4534H523.019V75.628H537.191V63.9867H538.016V76.4534Z" fill="#DADBD8"/>
    <path
      d="M623.587 506.501C623.587 511.165 494.801 514.947 335.936 514.947C177.069 514.947 48.2833 511.165 48.2833 506.501C48.2833 501.837 177.069 498.056 335.936 498.056C494.801 498.056 623.587 501.837 623.587 506.501Z"
      fill="#F3F2F1"/>
    <path d="M512.721 175.527L538.016 198.215H428.273L406.829 175.527H512.721Z" fill="#406FBF"/>
    <path d="M538.016 198.215H512.771V175.571L538.016 198.215Z" fill="#254583"/>
    <path d="M406.829 281.469H512.771V175.527H406.829V281.469Z" fill="#406FBF"/>
    <path d="M512.771 281.469H478.739V175.527H406.829H512.771V175.571V198.215V236.521V250.024V281.469Z" fill="#3563B7"/>
    <path d="M372.796 281.469H478.739V175.527H372.796V281.469Z" fill="#406FBF"/>
    <path d="M372.845 175.527L347.551 198.215H457.295L478.739 175.527H372.845Z" fill="#406FBF"/>
    <path d="M457.295 198.215H347.551L372.845 175.527H478.739L457.295 198.215Z" fill="#6D97D6"/>
    <path
      d="M422.777 264.501C419.755 264.501 417.396 262.144 417.396 259.123C417.396 256.1 419.755 253.743 422.777 253.743C425.725 253.743 428.084 256.1 428.084 259.123C428.084 262.144 425.725 264.501 422.777 264.501ZM427.495 212.028C437.369 212.028 444.076 217.851 444.076 227.431C444.076 237.821 436.707 242.392 426.831 242.392L426.536 248.215H419.239L418.871 236.644H421.303C429.632 236.644 436.044 235.171 436.044 227.431C436.044 222.272 432.875 219.103 427.567 219.103C422.335 219.103 419.019 222.051 419.019 227.209H411.133C411.057 218.292 417.471 212.028 427.495 212.028Z"
      fill="white"/>
    <path d="M358.447 292.444H483.331V281.469H358.447V292.444Z" fill="#406FBF"/>
    <path d="M358.447 292.444H483.331V281.469H358.447V292.444Z" fill="#2D5BB2"/>
    <path d="M483.331 292.444H529.716V281.469H483.331V292.444Z" fill="#406FBF"/>
    <path d="M483.331 292.444H529.716V281.469H483.331V292.444Z" fill="#254583"/>
    <path d="M433.575 498.965H441.103V292.444H433.575V498.965Z" fill="#17282F"/>
    <path d="M441.103 498.965H433.575V292.444V300.696L441.103 297.584V366.332V366.665V394.439V448.09V448.425V498.965Z"
          fill="#405158"/>
    <path d="M433.575 300.696V292.444H441.103V297.584L433.575 300.696Z" fill="#313D43"/>
    <path
      d="M474.135 505.649H400.543V505.609C400.543 499.623 405.396 494.768 411.384 494.768H463.293C469.28 494.768 474.135 499.623 474.135 505.609V505.649Z"
      fill="#406FBF"/>
    <path
      d="M114.88 398.533C114.88 398.533 123.982 395.213 126.337 404.851C128.693 414.488 135.437 412 136.713 409.889C139.229 405.728 139.581 390.671 135.255 389.763C130.087 388.678 116.7 394.144 114.88 398.533Z"
      fill="#406FBF"/>
    <path
      d="M132.665 411.829C131.367 411.829 129.961 411.333 128.743 409.968C127.772 408.878 126.92 407.236 126.337 404.851C124.942 399.144 121.182 397.98 118.347 397.98C116.394 397.98 114.88 398.533 114.88 398.533C116.541 394.527 127.84 389.624 133.728 389.624C134.291 389.624 134.804 389.669 135.255 389.763C135.989 389.917 136.591 390.482 137.068 391.331C137.387 396.655 137.555 402.223 137.517 407.977C137.283 408.741 137.013 409.394 136.713 409.889C136.149 410.823 134.516 411.831 132.665 411.829Z"
      fill="#2251AA"/>
    <path
      d="M135.256 389.763C124.581 389.919 121.757 399.292 120.042 407.553L116.572 401.078L119.033 412.572C118.77 413.828 118.493 414.987 118.175 415.996C115.606 424.137 107.68 426.616 107.68 426.616C107.68 426.616 107.202 423.312 106.781 418.669V418.665L110.665 412.556L106.444 414.329C105.971 407.047 105.908 398.289 107.68 393.297C111.108 383.66 120.305 386.625 120.305 386.625L135.256 389.763Z"
      fill="#406FBF"/>
    <path
      d="M161.84 379.644C161.84 379.644 156.247 377.957 150.383 385.961C144.735 393.672 142.481 394.577 138.653 391.578C134.824 388.58 137.14 371.781 141.465 370.872C146.633 369.789 160.02 375.253 161.84 379.644Z"
      fill="#406FBF"/>
    <path
      d="M142.216 393.169C141.08 393.169 139.959 392.601 138.653 391.578C138.515 391.471 138.384 391.344 138.261 391.201C138.007 386.961 137.656 382.872 137.239 378.967C137.999 374.861 139.532 371.279 141.465 370.872C141.916 370.779 142.429 370.733 142.991 370.733C148.879 370.733 160.179 375.636 161.84 379.644C161.84 379.644 161.349 379.496 160.504 379.496C158.5 379.496 154.508 380.329 150.383 385.961C146.66 391.043 144.412 393.169 142.216 393.169Z"
      fill="#2251AA"/>
    <path
      d="M179.828 423.414C179.828 423.414 172.867 421.236 168.096 414.685L174.268 400.201L165.805 410.751C165.449 409.964 165.128 409.135 164.852 408.259C161.183 396.643 161.935 371.425 140.845 371.119L161.812 366.336C161.812 366.336 174.939 362.101 179.828 375.857C181.075 379.356 181.685 384.155 181.903 389.363L174.268 382.295C174.268 382.295 179.561 389.976 181.996 393.185C182.119 407.587 179.828 423.414 179.828 423.414Z"
      fill="#406FBF"/>
    <path
      d="M108.489 357.307C108.489 357.307 117.591 353.985 119.946 363.623C122.302 373.261 134.155 376.939 135.371 372.231C136.668 367.205 133.8 349.304 129.474 348.396C124.306 347.312 110.309 352.916 108.489 357.307Z"
      fill="#406FBF"/>
    <path
      d="M132.066 374.271C131.067 374.271 129.924 374.036 128.743 373.581C125.145 372.195 121.2 368.753 119.946 363.623C118.957 359.575 116.777 357.813 114.581 357.131C113.682 356.852 112.781 356.753 111.957 356.753C110.004 356.753 108.489 357.307 108.489 357.307C110.154 353.291 122.005 348.26 127.97 348.26C128.527 348.26 129.033 348.304 129.474 348.396C130.098 348.527 130.693 349.012 131.249 349.763C132.625 355.941 134.095 363.669 135.265 372.553C134.804 373.715 133.607 374.271 132.066 374.271ZM135.6 366.432C134.961 362.3 134.271 358.469 133.577 354.993C134.641 358.515 135.363 362.843 135.6 366.432Z"
      fill="#2251AA"/>
    <path
      d="M129.856 348.475C112.614 348.725 109.724 365.821 107.237 378.401L98.451 365.728C98.564 366.095 103.222 381.215 105.024 387.209C100.964 397.799 90.5005 401.078 90.5005 401.078C90.5005 401.078 87.5708 380.843 88.5125 365.312C91.0817 363.184 95.6245 359.373 95.6245 359.373L88.8912 361.041C89.2317 358.193 89.7521 355.623 90.5005 353.519C95.3901 339.765 108.519 344 108.519 344L129.856 348.475Z"
      fill="#406FBF"/>
    <path
      d="M136.713 432.673L136.647 432.671C136.316 432.633 136.079 432.336 136.116 432.007C142.085 378.875 127.128 334.075 126.976 333.629C126.869 333.315 127.037 332.973 127.351 332.867C127.669 332.761 128.008 332.928 128.114 333.241C128.267 333.691 143.309 378.745 137.311 432.14C137.276 432.448 137.016 432.673 136.713 432.673Z"
      fill="#406FBF"/>
    <path d="M113.757 435.266H159.903V428.805H113.757V435.266Z" fill="#17282F"/>
    <path d="M159.903 435.266H113.757V428.805H159.903V435.266Z" fill="#405158"/>
    <path
      d="M152.459 435.266H120.967C117.185 444.052 104.958 469.937 104.958 477.585C104.958 486.632 116.241 505.488 116.241 505.488C116.241 506.841 157.185 506.841 157.185 505.488C157.185 505.488 168.468 486.632 168.468 477.585C168.468 469.937 156.241 444.052 152.459 435.266Z"
      fill="#17282F"/>
    <path
      d="M229.872 46.7973C229.872 62.296 217.308 74.86 201.811 74.86C186.313 74.86 173.749 62.296 173.749 46.7973C173.749 31.3 186.313 18.736 201.811 18.736C217.308 18.736 229.872 31.3 229.872 46.7973Z"
      fill="#406FBF"/>
    <path
      d="M201.811 74.86C186.313 74.86 173.749 62.296 173.749 46.7973C173.749 31.3 186.313 18.736 201.811 18.736C217.308 18.736 229.872 31.3 229.872 46.7973C229.872 48.2587 229.761 49.692 229.545 51.092C227.479 64.552 215.848 74.86 201.811 74.86Z"
      fill="#B8D2EF"/>
    <path
      d="M201.811 19.3133C186.656 19.3133 174.327 31.6426 174.327 46.7973C174.327 61.9533 186.656 74.2827 201.811 74.2827C216.965 74.2827 229.295 61.9533 229.295 46.7973C229.295 31.6426 216.965 19.3133 201.811 19.3133ZM201.811 75.4373C186.019 75.4373 173.172 62.5893 173.172 46.7973C173.172 31.0066 186.019 18.1587 201.811 18.1587C217.603 18.1587 230.449 31.0066 230.449 46.7973C230.449 62.5893 217.603 75.4373 201.811 75.4373Z"
      fill="#406FBF"/>
    <path
      d="M199.136 63.4947C197.276 63.4947 195.824 62.0427 195.824 60.184C195.824 58.324 197.276 56.8733 199.136 56.8733C200.949 56.8733 202.401 58.324 202.401 60.184C202.401 62.0427 200.949 63.4947 199.136 63.4947ZM202.037 31.2013C208.116 31.2013 212.244 34.784 212.244 40.68C212.244 47.0747 207.708 49.888 201.629 49.888L201.448 53.4707H196.957L196.731 46.3493H198.228C203.353 46.3493 207.3 45.4427 207.3 40.68C207.3 37.5053 205.349 35.5547 202.084 35.5547C198.863 35.5547 196.823 37.368 196.823 40.544H191.969C191.923 35.056 195.869 31.2013 202.037 31.2013Z"
      fill="#406FBF"/>
    <path
      d="M219.368 68.688L228.52 73.2374C229 73.4774 229.521 73.0014 229.329 72.5014L225.325 62.1187C223.288 65.0134 221.296 67.276 219.368 68.688Z"
      fill="#406FBF"/>
    <path
      d="M226.644 119.807C227.927 126.26 282.809 123.695 280.241 115.361C279.812 113.973 278.965 112.589 278.245 111.04C274.677 103.361 268.755 93.7333 249.589 93.7973C238.061 93.836 222.867 100.807 226.644 119.807Z"
      fill="#406FBF"/>
    <path d="M294.62 482.277L297.429 496.489H304.943L305.943 482.277H294.62Z" fill="#F9A8B3"/>
    <path
      d="M303.952 494.687C303.952 494.687 305.376 492.927 307.184 493.527C308.991 494.128 311.356 497.088 311.356 497.088C311.356 497.088 321.155 500.229 323.801 500.395C326.448 500.56 328.764 502.049 329.756 507.177H297.667C297.667 507.177 296.403 495.597 296.208 493.613C296.012 491.628 299.155 494.109 299.155 494.109L303.952 494.687Z"
      fill="#406FBF"/>
    <path
      d="M328.803 505.648C326.873 505.63 324.952 505.609 323.023 505.592C314.593 505.506 306.165 505.412 297.736 505.325C297.415 505.325 297.415 504.824 297.736 504.835C298.304 504.844 298.88 504.844 299.448 504.853L299.467 504.787C300.677 502.109 299.277 499.375 296.856 498.004C296.572 497.854 296.828 497.419 297.101 497.578C299.723 499.064 301.16 501.987 299.959 504.853C301.151 504.872 302.333 504.881 303.525 504.89C311.944 504.976 320.373 505.071 328.803 505.156C329.124 505.156 329.124 505.657 328.803 505.648Z"
      fill="#040606"/>
    <path
      d="M310.219 499.101C311.335 497.535 313.22 497.089 314.804 498.271C315.059 498.463 315.307 498.032 315.053 497.843C313.236 496.484 311.055 497.075 309.789 498.852C309.604 499.112 310.035 499.361 310.219 499.101Z"
      fill="white"/>
    <path
      d="M312.983 499.936C314.099 498.369 315.985 497.924 317.568 499.105C317.824 499.297 318.072 498.866 317.819 498.677C316.001 497.319 313.819 497.909 312.555 499.687C312.369 499.947 312.8 500.195 312.983 499.936Z"
      fill="white"/>
    <path
      d="M315.839 500.771C316.955 499.202 318.84 498.759 320.423 499.94C320.679 500.132 320.927 499.701 320.673 499.512C318.857 498.153 316.673 498.744 315.409 500.52C315.224 500.782 315.655 501.029 315.839 500.771Z"
      fill="white"/>
    <path d="M227.403 482.378L228.961 496.489H236.475L238.725 482.378H227.403Z" fill="#F9A8B3"/>
    <path
      d="M235.484 494.687C235.484 494.687 236.909 492.927 238.716 493.527C240.523 494.128 242.888 497.088 242.888 497.088C242.888 497.088 252.688 500.229 255.333 500.395C257.981 500.56 260.297 502.049 261.289 507.177H229.199C229.199 507.177 227.936 495.597 227.74 493.613C227.544 491.628 230.688 494.109 230.688 494.109L235.484 494.687Z"
      fill="#406FBF"/>
    <path
      d="M260.336 505.648C258.405 505.63 256.485 505.609 254.556 505.592C246.127 505.506 237.697 505.412 229.268 505.325C228.947 505.325 228.947 504.824 229.268 504.835C229.836 504.844 230.413 504.844 230.98 504.853L231 504.787C232.211 502.109 230.811 499.375 228.389 498.004C228.105 497.854 228.36 497.419 228.635 497.578C231.255 499.064 232.693 501.987 231.492 504.853C232.684 504.872 233.865 504.881 235.057 504.89C243.477 504.976 251.907 505.071 260.336 505.156C260.657 505.156 260.657 505.657 260.336 505.648Z"
      fill="#040606"/>
    <path
      d="M241.751 499.101C242.867 497.535 244.752 497.089 246.336 498.271C246.592 498.463 246.84 498.032 246.587 497.843C244.769 496.484 242.587 497.075 241.323 498.852C241.137 499.112 241.567 499.361 241.751 499.101Z"
      fill="white"/>
    <path
      d="M244.516 499.936C245.632 498.369 247.517 497.924 249.1 499.105C249.357 499.297 249.604 498.866 249.351 498.677C247.533 497.319 245.351 497.909 244.087 499.687C243.901 499.947 244.332 500.195 244.516 499.936Z"
      fill="white"/>
    <path
      d="M247.371 500.771C248.487 499.202 250.373 498.759 251.956 499.94C252.212 500.132 252.46 499.701 252.207 499.512C250.389 498.153 248.207 498.744 246.943 500.52C246.757 500.782 247.187 501.029 247.371 500.771Z"
      fill="white"/>
    <path
      d="M292.12 482.777H308.699C310.133 461.428 314.192 390.685 310.985 355.679C313.292 307.105 305.869 242.629 305.869 242.629H253.349C253.349 242.629 257.197 285.776 274.473 354.979C274.353 409.807 287.736 464.617 292.12 482.777Z"
      fill="#17282F"/>
    <path
      d="M271.641 343.348L264.605 311.721L272.304 257.749C272.636 257.735 272.972 257.72 273.305 257.704C274.963 269.66 279.657 310.607 271.641 343.348Z"
      fill="#111D23"/>
    <path d="M290.144 482.361L291.361 488.663L310.372 488.581L310.384 482.277L290.144 482.361Z" fill="#17282F"/>
    <path
      d="M225.039 483.39H241.617C247.524 461.428 259.389 390.815 261.289 355.807C270.681 307.233 275.173 242.629 275.173 242.629H222.653C222.653 242.629 217.768 286.271 224.949 355.473C223.556 415.807 224.663 464.617 225.039 483.39Z"
      fill="#17282F"/>
    <path d="M223.589 482.345L223.556 488.592L242.717 488.595L243.721 482.349L223.589 482.345Z" fill="#17282F"/>
    <path
      d="M312.736 250.552C276.309 264.552 216.963 254.407 216.963 254.407C217.669 236.593 218.283 201.313 218.043 171.993C218.031 171.313 218.031 170.633 218.016 169.953C217.976 165.793 217.909 161.765 217.831 157.953C217.816 157.485 217.816 157.02 217.804 156.567C217.629 149.073 217.363 142.447 217.016 137.14C216.349 127.152 221.777 117.86 231.657 116.193C234.657 115.687 237.896 115.247 241.271 114.887C242.069 114.793 242.884 114.713 243.709 114.633C253.069 113.713 263.336 113.313 272.709 113.58C273.176 113.58 273.643 113.593 274.111 113.607C274.349 113.62 274.616 113.62 274.857 113.633C275.256 113.647 275.669 113.66 276.069 113.687C280.243 113.86 284.203 114.167 287.751 114.633C295.804 115.673 302.963 122.033 303.096 130.167C303.217 137.62 303.949 153.353 305.003 171.099C305.403 177.82 305.857 184.847 306.349 191.807C308.256 219.205 310.683 245.765 312.736 250.552Z"
      fill="#406FBF"/>
    <path
      d="M219.789 217.953L219.816 218.007L219.777 217.98L219.604 217.953L214.324 227.86C213.976 227.673 213.643 227.485 213.309 227.287L213.056 227.127L212.896 227.02L212.604 226.807L211.991 226.38L211.496 226.007C210.816 225.5 210.271 225.047 209.683 224.567C208.576 223.62 207.524 222.687 206.497 221.74C204.456 219.86 202.497 217.98 200.551 216.073C196.709 212.22 192.991 208.3 189.376 204.273C185.736 200.247 182.229 196.127 178.763 191.713C177.896 190.607 177.016 189.46 176.164 188.232C175.723 187.593 175.296 187.007 174.843 186.273C174.403 185.607 173.937 184.819 173.417 183.847L173.003 182.967L172.789 182.527C172.696 182.273 172.589 181.98 172.497 181.713L172.243 180.86C172.164 180.5 172.109 180.567 171.963 179.447C171.857 178.58 171.843 177.673 171.937 176.793L172.016 176.14C172.057 175.94 172.096 175.687 172.123 175.607L172.324 174.9C172.471 174.42 172.657 173.953 172.857 173.485L173.164 172.819L173.336 172.485L173.403 172.367L173.976 171.42C174.429 170.7 174.643 170.42 174.937 170.007C176.069 168.447 176.976 167.367 177.923 166.205C181.643 161.819 185.324 157.94 189.043 154.007C192.789 150.14 196.524 146.3 200.349 142.58C207.963 135.073 215.697 127.78 223.763 120.753L239.016 137.527C231.429 144.793 223.604 151.9 215.803 158.94L204.149 169.5C200.416 172.845 196.657 176.3 193.283 179.607C193.551 180.087 193.831 180.567 194.123 181.047C196.709 185.313 199.643 189.647 202.524 193.967C205.456 198.273 208.416 202.593 211.429 206.819C212.923 208.953 214.429 211.06 215.963 213.099C216.723 214.127 217.497 215.099 218.243 216.047L219.296 217.353L219.709 217.845L219.789 217.953Z"
      fill="#406FBF"/>
    <path
      d="M256.233 125.287C256.233 125.288 256.315 125.627 256.459 126.271C257.467 130.784 261.504 150.193 261.503 171.272C261.503 174.724 261.395 178.22 261.148 181.701C261.135 181.885 261.273 182.045 261.457 182.059C261.64 182.071 261.8 181.933 261.813 181.749C262.061 178.249 262.169 174.737 262.169 171.272C262.169 147.087 256.884 125.145 256.881 125.131C256.839 124.952 256.659 124.841 256.479 124.885C256.3 124.928 256.191 125.108 256.233 125.287Z"
      fill="white"/>
    <path
      d="M271.931 124.668C271.932 124.668 272.013 125.007 272.157 125.652C273.164 130.164 277.201 149.575 277.201 170.655C277.201 174.105 277.093 177.6 276.845 181.083C276.833 181.265 276.971 181.425 277.155 181.439C277.339 181.451 277.497 181.313 277.511 181.129C277.759 177.631 277.868 174.12 277.868 170.655C277.867 146.469 272.583 124.525 272.579 124.511C272.536 124.332 272.356 124.223 272.177 124.265C271.999 124.308 271.888 124.488 271.931 124.668Z"
      fill="white"/>
    <path
      d="M306.349 191.807C295.052 175.332 286.088 157.325 279.667 137.651C281.901 141.92 284.183 146.161 286.483 150.393C287.736 152.673 289.003 154.967 290.271 157.247C290.349 157.393 290.429 157.54 290.509 157.687C291.176 158.9 291.857 160.113 292.536 161.327C293.203 162.527 293.884 163.74 294.576 164.94C295.271 166.153 295.949 167.353 296.629 168.553C297.324 169.765 298.016 170.967 298.697 172.167C299.324 173.247 299.937 174.327 300.563 175.393C300.749 175.727 300.937 176.06 301.136 176.38C301.524 177.047 301.909 177.713 302.296 178.367C302.496 178.7 302.683 179.02 302.884 179.353C303.639 180.615 304.607 181.695 305.72 182.565C305.921 185.637 306.132 188.728 306.349 191.807Z"
      fill="#3563B7"/>
    <path
      d="M261.193 238.265C247.423 238.265 237.961 236.783 237.961 236.783C238.887 226.712 236.299 209.22 236.299 209.22C251.675 207.884 266.368 207.085 280.051 207.085C285.289 207.085 290.38 207.203 295.303 207.452C298.048 217.556 298.115 227.807 296.911 234.597C284.029 237.448 271.423 238.265 261.193 238.265Z"
      fill="#3563B7"/>
    <path
      d="M279.688 57.8653C273.993 55.844 267.667 56.0974 262.308 58.8894C258.809 60.712 255.769 63.5027 255.844 67.6894C256.019 77.4587 258.741 93.7973 258.741 93.7973L291.715 78.8907C291.715 78.8907 294.116 70.7094 290.253 65.4894C287.387 61.6147 283.896 59.3613 279.688 57.8653Z"
      fill="#17282F"/>
    <path
      d="M255.988 77.92C255.988 77.92 256.703 75.0814 253.429 69.808C250.155 64.5347 253.744 61.2534 256.261 62.0134C256.261 62.0134 254.948 58.764 257.131 57.652C259.312 56.5414 260.423 57.8107 260.423 57.8107C260.423 57.8107 268.643 51.232 279.805 53.4374C288.799 55.2134 295.449 48.9427 298.787 51.3854C302.124 53.828 296.055 56.1107 296.055 56.1107C296.055 56.1107 301.453 59.084 300.613 61.8574C299.775 64.6307 294.833 64.8494 294.833 64.8494C294.833 64.8494 299.965 68.2574 297.872 70.5267C295.779 72.7961 289.249 70.0467 289.249 70.0467C289.249 70.0467 263.353 69.9107 255.988 77.92Z"
      fill="#17282F"/>
    <path
      d="M273.151 105.941L273.152 105.956L273.092 106.065L271.019 111.471C270.775 112.593 270.636 113.721 270.605 114.829C270.575 115.765 270.623 116.681 270.723 117.568C271.764 119.377 271.932 123.243 267.584 122.789C262.095 122.228 252.788 113.615 252.688 111.156C256.04 103.933 259.225 94.9 259.592 87.692L265.119 95.1413L273.151 105.941Z"
      fill="#F9A8B3"/>
    <path
      d="M288.247 95.92C287.791 97.0947 287.299 98.2467 286.781 99.38C282.193 109.383 269.289 108.933 262.155 100.424L262.135 100.392C261.501 99.636 260.912 98.8187 260.379 97.9293C256.04 90.724 257.867 85.7453 259.892 74.2107C261.913 62.6893 275.113 56.7853 285 63.8707C294.124 70.408 292.825 84.1773 288.247 95.92Z"
      fill="#F9A8B3"/>
    <path
      d="M277.948 94.8373C277.492 96.0667 276.364 96.7827 275.428 96.436C274.492 96.0893 274.103 94.8107 274.557 93.58C275.015 92.3494 276.143 91.6334 277.079 91.98C278.015 92.328 278.404 93.6067 277.948 94.8373Z"
      fill="white"/>
    <path
      d="M269.549 72.4213C272.556 72 270.508 68.6853 271.153 66.8253C273.251 60.7773 289.703 64.9133 291.596 74.1653C291.596 74.1653 291.14 67.116 286.007 62.7973C280.872 58.4786 269.828 56.5133 264.749 61.5013C259.671 66.4893 259.647 75.2813 259.647 75.2813C259.647 75.2813 259.509 76.8707 260.492 77.92C261.04 78.4493 262.004 80.8853 263.603 81.532C264.967 82.084 266.005 81.8653 266.505 79.8907C267.005 77.9173 267.537 72.704 269.549 72.4213Z"
      fill="#17282F"/>
    <path
      d="M253.197 80.6227C253.327 83.7747 254.899 86.5733 256.835 88.3C259.747 90.896 262.912 88.7067 263.535 85.0627C264.096 81.784 263.257 76.4827 259.647 75.2813C256.089 74.0987 253.049 77.0173 253.197 80.6227Z"
      fill="#F9A8B3"/>
    <path
      d="M276.767 81.2787C276.552 82.1733 276.852 83.0134 277.437 83.1534C278.023 83.2947 278.671 82.6827 278.887 81.7867C279.101 80.892 278.801 80.052 278.216 79.9107C277.631 79.7707 276.981 80.3827 276.767 81.2787Z"
      fill="#17282F"/>
    <path
      d="M286.609 83.5134C286.395 84.4094 286.695 85.2494 287.28 85.3894C287.865 85.5294 288.515 84.9174 288.729 84.0227C288.944 83.1267 288.644 82.2867 288.059 82.1467C287.472 82.0067 286.824 82.6187 286.609 83.5134Z"
      fill="#17282F"/>
    <path
      d="M290.119 80.8227C289.961 80.7854 289.829 80.6653 289.781 80.4987C289.569 79.752 289.196 79.2293 288.671 78.9453C287.807 78.4773 286.777 78.78 286.767 78.784C286.528 78.86 286.263 78.7253 286.187 78.4787C286.111 78.2347 286.247 77.9734 286.492 77.896C286.547 77.8787 287.899 77.4707 289.113 78.128C289.867 78.5347 290.392 79.248 290.675 80.244C290.747 80.4907 290.603 80.748 290.356 80.8187L290.119 80.8227Z"
      fill="#17282F"/>
    <path
      d="M274.851 77.1853L274.648 77.0827C274.436 76.9067 274.404 76.5907 274.581 76.376C274.623 76.3267 275.604 75.156 277.097 75.0307C278.023 74.9533 278.921 75.2867 279.771 76.0254C279.981 76.208 280.004 76.5253 279.821 76.7347C279.637 76.9467 279.319 76.968 279.111 76.7853C278.477 76.236 277.832 75.9827 277.189 76.0347C276.121 76.12 275.365 77.0107 275.357 77.0187C275.229 77.1707 275.032 77.2293 274.851 77.1853Z"
      fill="#17282F"/>
    <path
      d="M282.904 81.9413C282.904 81.9413 283.368 86.0454 284.616 88.8894C285.868 91.744 280.949 90.6773 280.949 90.6773L282.904 81.9413Z"
      fill="#F46878"/>
    <path
      d="M218.016 169.953C217.976 165.793 217.909 161.765 217.831 157.953C217.821 157.675 217.819 157.397 217.815 157.123C221.595 153.707 225.376 150.273 229.127 146.811L235.137 141.633L218.016 169.953Z"
      fill="#3563B7"/>
    <path
      d="M217.815 157.123C217.812 156.936 217.808 156.751 217.804 156.567L229.127 146.811C225.376 150.273 221.595 153.707 217.815 157.123Z"
      fill="#3563B7"/>
    <path
      d="M317.831 184.047C312.349 186.539 305.909 184.407 302.884 179.353C302.683 179.02 302.496 178.7 302.296 178.367C301.909 177.713 301.524 177.047 301.136 176.38C300.937 176.06 300.749 175.727 300.563 175.393C299.937 174.327 299.324 173.247 298.697 172.167C298.016 170.967 297.324 169.765 296.629 168.553C295.949 167.353 295.271 166.153 294.576 164.94C293.884 163.74 293.203 162.527 292.536 161.327C291.857 160.113 291.176 158.9 290.509 157.687C290.429 157.54 290.349 157.393 290.271 157.247C289.003 154.967 287.736 152.673 286.483 150.393C283.831 145.513 281.203 140.62 278.643 135.687C276.084 130.74 273.551 125.793 271.164 120.74L281.657 113.873C285.324 118.087 288.843 122.407 292.336 126.74C292.723 127.22 293.109 127.699 293.497 128.193L301.509 124.007C303.509 127.527 305.403 131.099 307.271 134.7C309.123 138.287 310.963 141.899 312.751 145.527C314.536 149.152 316.324 152.793 318.043 156.46C319.789 160.113 321.497 163.793 323.176 167.473L323.643 168.513C326.324 174.407 323.723 181.367 317.831 184.047Z"
      fill="#406FBF"/>
    <path
      d="M296.629 168.553C296.483 168.313 296.349 168.087 296.217 167.845C294.963 165.687 293.736 163.512 292.536 161.327C293.203 162.527 293.884 163.74 294.576 164.94C295.271 166.152 295.949 167.353 296.629 168.553Z"
      fill="#406FBF"/>
    <path
      d="M281.669 116.58C281.415 118.6 279.949 121.753 277.003 121.647C274.243 121.54 271.937 120.607 271.657 120.485L271.629 120.473C269.376 119.899 265.149 118.473 263.696 115.687C261.657 111.793 264.843 105.687 264.843 105.687C261.536 102.553 257.624 97.1627 260.357 98.3894C263.077 99.616 273.815 107.113 277.659 106.264C281.232 105.475 282.484 102.373 283.811 103.001C285.339 103.723 282.501 106.497 281.075 109.377C281.075 109.377 282.059 113.5 281.669 116.58Z"
      fill="#F9A8B3"/>
    <path
      d="M270.669 120.54L270.528 120.508C270.432 120.464 269.571 120.06 268.443 119.412C269.345 119.795 270.235 120.087 270.988 120.3C270.984 120.316 270.977 120.332 270.971 120.347C270.915 120.468 270.795 120.54 270.669 120.54ZM263.851 115.96C263.285 115.341 262.84 114.691 262.605 114.029C261.559 111.071 263.807 106.823 264.416 105.756C263.557 105.001 260.388 102.144 259.539 100.396C259.071 99.4307 258.965 98.7427 259.219 98.2894C259.42 97.928 259.767 97.884 259.805 97.88C259.999 97.8827 260.193 97.9053 260.389 97.9467C260.524 98.172 260.664 98.3933 260.807 98.6093C260.639 98.5227 260.489 98.4494 260.357 98.3894C260.085 98.268 259.88 98.2107 259.733 98.2107C259.191 98.2107 259.439 98.976 260.124 100.073C260.128 100.084 260.133 100.095 260.139 100.105C260.361 100.564 260.772 101.119 261.264 101.695C262.289 103.032 263.608 104.516 264.843 105.687C264.843 105.687 263.667 107.941 263.201 110.585C263.041 111.312 262.96 112.051 263.016 112.744C263.033 113.775 263.227 114.789 263.696 115.687C263.745 115.779 263.796 115.871 263.851 115.96Z"
      fill="#D8898C"/>
    <path
      d="M278.677 105.959C279.151 105.671 279.421 105.269 279.652 104.925L279.915 104.544C280.541 103.64 281.516 102.236 283.043 102.236C283.385 102.236 283.757 102.307 284.159 102.469C284.329 102.539 284.412 102.732 284.341 102.904C284.289 103.032 284.165 103.112 284.033 103.112C284.019 103.112 284.004 103.111 283.989 103.108C283.937 103.069 283.879 103.033 283.811 103.001C283.691 102.944 283.571 102.917 283.449 102.917C283.412 102.917 283.373 102.92 283.335 102.925C283.232 102.909 283.132 102.901 283.036 102.901C281.967 102.901 281.227 103.82 280.463 104.923L280.376 105.049C279.885 105.389 279.325 105.711 278.677 105.959ZM268.033 102.8C265.069 101.147 262.279 99.3747 260.807 98.6093C260.664 98.3933 260.524 98.172 260.389 97.9467C261.584 98.1973 262.851 99.1293 264.513 100.353C265.535 101.105 266.689 101.955 268.033 102.8Z"
      fill="#D8898C"/>
    <path
      d="M270.988 120.3C270.235 120.087 269.345 119.795 268.443 119.412C267.001 118.583 265.123 117.352 263.851 115.96C263.796 115.871 263.745 115.779 263.696 115.687C263.227 114.789 263.033 113.775 263.016 112.744C263.047 113.113 263.116 113.471 263.235 113.807C264.315 116.859 270.744 119.873 270.809 119.904C270.96 119.975 271.035 120.144 270.988 120.3ZM263.201 110.585C263.667 107.941 264.843 105.687 264.843 105.687C263.608 104.516 262.289 103.032 261.264 101.695C262.765 103.453 265.031 105.408 265.06 105.433C265.184 105.54 265.213 105.721 265.128 105.86C265.107 105.893 263.729 108.175 263.201 110.585ZM277.1 107.021C275.895 107.021 274.221 106.62 271.811 105.565C268.499 104.115 266.069 102.327 264.117 100.891C262.356 99.592 260.963 98.5667 259.841 98.544L259.793 98.628C259.751 98.7173 259.648 99.0827 260.124 100.073C259.439 98.976 259.191 98.2107 259.733 98.2107C259.88 98.2107 260.085 98.268 260.357 98.3893C260.489 98.4493 260.639 98.5227 260.807 98.6093C262.279 99.3747 265.069 101.147 268.033 102.8C269.22 103.545 270.556 104.288 272.077 104.953C274.424 105.981 275.996 106.344 277.081 106.344C277.796 106.344 278.301 106.188 278.677 105.959C279.325 105.711 279.885 105.389 280.376 105.049L280.204 105.299C279.595 106.204 278.823 107.021 277.1 107.021ZM283.989 103.108C283.961 103.105 283.935 103.097 283.908 103.087C283.707 103.005 283.516 102.953 283.335 102.925C283.373 102.92 283.412 102.917 283.449 102.917C283.571 102.917 283.691 102.944 283.811 103.001C283.879 103.033 283.937 103.069 283.989 103.108Z"
      fill="#D8898C"/>
    <path
      d="M293.497 128.193C293.109 127.699 292.723 127.22 292.336 126.74C290.585 124.567 288.827 122.397 287.047 120.243L286.395 119.251C289.097 122.347 291.552 125.281 293.775 128.048L293.497 128.193Z"
      fill="#3563B7"/>
    <path
      d="M314.949 162.695L287.047 120.243C288.827 122.397 290.585 124.567 292.336 126.74C292.723 127.22 293.109 127.699 293.497 128.193L293.775 128.048C312.295 151.095 314.949 162.695 314.949 162.695Z"
      fill="#3563B7"/>
    <path
      d="M217.848 218.173C217.848 218.173 229.341 221.712 230.251 223.953C231.16 226.195 227.404 225.615 227.404 225.615C227.404 225.615 231.501 226.477 231.391 228.055C231.257 229.951 227.325 229.327 227.325 229.327C227.325 229.327 230.644 230.151 230.439 231.545C230.225 232.993 225.743 232.567 225.743 232.567C225.743 232.567 227.973 233.536 227.208 234.412C226.443 235.289 218.089 234.677 215.447 232.797C212.804 230.919 214.507 220.388 215.283 218.097C216.059 215.808 214.7 213.431 217.945 210.807L217.848 218.173Z"
      fill="#F9A8B3"/>
    <path
      d="M227.573 225.653C227.465 225.627 227.404 225.615 227.404 225.615C227.404 225.615 227.463 225.623 227.563 225.635L227.573 225.653Z"
      fill="#3563B7"/>
    <path
      d="M227.377 225.789L227.36 225.787L220.283 223.983L220.155 223.765L220.371 223.637L227.448 225.441L227.563 225.635C227.463 225.623 227.404 225.615 227.404 225.615C227.404 225.615 227.465 225.627 227.573 225.653L227.576 225.657L227.377 225.789Z"
      fill="#D8898C"/>
    <path
      d="M227.093 229.471L227.088 229.469L220.157 228.211L220.013 228.005L220.22 227.861L227.152 229.12L227.296 229.327L227.093 229.471Z"
      fill="#D8898C"/>
    <path
      d="M225.477 232.705L220.303 231.9L220.155 231.697L220.357 231.549L225.532 232.355L225.681 232.557L225.477 232.705Z"
      fill="#D8898C"/>
  </g>
  <defs>
    <clipPath id="clip0_1_263">
      <rect fill="white" height="514.947" width="666.667"/>
    </clipPath>
  </defs>
</svg>
